<svg width="58" height="58" viewBox="0 0 58 58" fill="none" xmlns="http://www.w3.org/2000/svg">
<g clip-path="url(#clip0_881_311)">
<path d="M29.4688 10.5894C35.922 10.5894 41.1493 15.8195 41.1493 22.2708C41.1493 28.7221 35.922 33.9484 29.4688 33.9484C23.0156 33.9484 17.7939 28.7183 17.7939 22.2708C17.7939 15.8232 23.0184 10.5894 29.4688 10.5894Z" fill="#C3C3C3"/>
<path d="M50.0636 47.8975C47.4911 50.7628 44.3422 53.1014 40.7993 54.7278L30.1622 57.275L28.7979 57.6016L27.4457 57.2562L16.7936 54.5369C13.7663 53.0883 11.0376 51.1166 8.72339 48.7397C9.87721 41.8186 14.1294 36.012 19.9332 32.9268C22.4645 35.197 25.808 36.581 29.4688 36.581C33.1296 36.581 36.476 35.197 39.0101 32.9268C44.5771 35.8838 48.717 41.3488 50.0636 47.8975Z" fill="#C3C3C3"/>
<path d="M29 58C28.4685 58 27.9332 57.985 27.4073 57.957C23.593 57.7501 19.9201 56.8125 16.4904 55.1692C13.4023 53.6916 10.6193 51.6928 8.22088 49.2289C2.91965 43.7826 0 36.5986 0 29C0 21.4014 3.01697 13.9713 8.49413 8.49413C13.9713 3.01697 21.2536 0 29 0C36.7464 0 44.0287 3.01697 49.5059 8.49413C54.983 13.9713 58 21.2536 58 29C58 36.1625 55.3667 43.0396 50.5858 48.3661C47.9094 51.3475 44.7156 53.7019 41.0922 55.3658C37.657 56.9454 33.9887 57.8231 30.1903 57.9766C29.8048 57.9925 29.4043 58.0009 29 58.0009V58ZM29 1.40368C13.7832 1.40368 1.40368 13.7832 1.40368 29C1.40368 36.2308 4.18203 43.0677 9.22591 48.25C11.5092 50.5951 14.1575 52.4976 17.0959 53.9041C20.358 55.4668 23.8532 56.3586 27.4831 56.5561C28.3646 56.6038 29.2845 56.6094 30.1332 56.5748C33.7482 56.4288 37.2377 55.5932 40.5064 54.0912C43.9548 52.5079 46.9942 50.2667 49.5414 47.4294C54.0912 42.3611 56.5963 35.8163 56.5963 29.0009C56.5963 13.7841 44.2168 1.40461 29 1.40461V1.40368Z" fill="#C3C3C3"/>
</g>
<defs>
<clipPath id="clip0_881_311">
<rect width="58" height="58" fill="white"/>
</clipPath>
</defs>
</svg>
