<svg width="499" height="491" viewBox="0 0 499 491" fill="none" xmlns="http://www.w3.org/2000/svg">
<g clip-path="url(#clip0_784_331)">
<path d="M76.7331 313.576C76.944 313.508 77.0998 313.436 77.1837 313.404L77.2771 313.361L157.268 281.071L157.791 280.858C157.791 280.858 157.853 280.83 157.884 280.815C159.4 280.019 159.923 278.571 160.103 277.851C160.169 277.57 160.183 277.404 160.183 277.404L172.627 198.516C172.639 198.427 172.667 198.292 172.681 198.127C172.662 198.151 172.676 198.182 172.667 198.194L172.726 197.848C172.726 197.848 172.719 197.882 172.721 197.904C172.749 197.671 172.803 197.38 172.855 197.068C172.85 197.123 172.843 197.157 172.827 197.203L172.869 196.903C172.869 196.903 172.859 197.013 172.833 197.071C172.862 196.936 172.875 196.771 172.901 196.615C172.892 196.627 172.894 196.648 172.897 196.67L172.925 196.535C172.925 196.535 172.92 196.591 172.913 196.624C172.935 196.523 172.944 196.413 172.963 196.291L173 196.046C172.988 196.135 172.965 196.214 172.963 196.291C174.299 187.817 182.501 184.293 182.511 184.281L253.727 155.198C253.727 155.198 253.758 155.183 253.789 155.169L254.113 155.034C254.268 154.961 254.458 154.896 254.688 154.804L255.157 154.609C255.157 154.609 255.251 154.565 255.304 154.548L255.764 154.365C255.596 154.428 255.45 154.488 255.304 154.548C261.144 152.167 266.591 156.086 266.591 156.086L335.95 212.386C336.106 212.51 336.521 212.878 336.765 213.485L336.995 213.393L336.77 213.528C336.847 213.727 336.918 213.959 336.926 214.221C336.926 214.123 336.916 214.036 336.908 213.971C336.94 214.154 336.953 214.36 336.901 214.672L337.101 213.359L323.06 303.791C322.997 304.192 322.623 305.699 320.941 306.383C320.972 306.368 321.003 306.354 321.034 306.339L320.679 306.489C320.679 306.489 320.732 306.472 320.763 306.458C320.365 306.612 320.325 306.639 320.48 306.566L244.423 336.823C244.423 336.823 244.37 336.84 244.296 336.859L242.99 337.391L242.446 337.606L241.787 337.867C241.787 337.867 241.768 337.891 241.724 337.895L241.053 338.147L240.823 338.239C240.823 338.239 240.646 338.313 240.543 338.369C239.726 338.779 238.193 339.719 238.012 341.281L237.864 342.282L237.725 343.173L237.599 344.073L237.292 346.163C237.292 346.163 237.28 346.252 237.285 346.295L226.113 423.115C226.097 423.259 226.078 423.381 226.062 423.525L225.846 424.982C225.387 429.758 229.718 428.806 231.761 428.115C232.381 427.902 232.777 427.726 232.777 427.726L233.604 427.402C233.604 427.402 233.774 427.361 233.824 427.323L234.893 426.917L394.37 365.566C395.281 365.211 395.898 364.681 396.348 364.116C397.017 363.275 397.234 362.408 397.319 362.004C397.348 361.87 397.34 361.805 397.34 361.805L424.878 183.552C424.878 183.552 424.892 183.485 424.9 183.451L425.094 182.193C425.221 180.626 424.923 179.271 424.454 178.133C423.37 175.544 420.944 173.753 420.944 173.753L421.041 173.83L279.738 61.4912C279.289 61.2909 275.721 59.5533 273.156 60.359C272.965 60.4027 272.799 60.4871 272.622 60.5619L105.541 126.364C105.541 126.364 105.541 126.364 105.488 126.381L105.277 126.449C105.277 126.449 105.162 126.495 105.099 126.524L104.596 126.712L104.407 126.778C104.258 126.816 104.062 126.915 103.822 127.019C103.055 127.391 101.877 128.082 100.945 129.205C100.281 129.992 99.7464 130.96 99.5276 132.199C99.4946 132.388 99.4546 132.611 99.4457 132.82L99.3728 133.233L99.2346 134.222C99.2346 134.222 99.23 134.277 99.2229 134.311L73.5507 311.477C73.1218 314.413 75.6135 313.922 76.7642 313.561L76.7331 313.576ZM336.884 213.756C336.884 213.756 336.906 213.852 336.913 213.916C336.906 213.852 336.901 213.808 336.884 213.756ZM321.37 306.214C321.693 306.078 322.029 305.953 322.299 305.835L321.37 306.214ZM256.14 154.213L257.832 153.517C257.257 153.747 256.672 153.988 256.14 154.213ZM260.914 152.259L261.551 152.001C261.551 152.001 261.312 152.105 260.914 152.259ZM258.239 153.351L259.263 152.928C258.939 153.063 258.594 153.201 258.239 153.351ZM259.368 152.894L260.391 152.472C260.089 152.604 259.744 152.742 259.368 152.894ZM174.275 187.995L174.317 187.695C174.317 187.695 174.291 187.851 174.275 187.995ZM174.193 188.518C174.132 188.941 174.043 189.497 173.939 190.122L174.193 188.518ZM173.688 191.747C173.625 192.147 173.561 192.548 173.501 192.971L173.688 191.747ZM173.153 195.186L173.315 194.217C173.266 194.55 173.205 194.874 173.153 195.186Z" fill="url(#paint0_linear_784_331)"/>
<path d="M320.972 306.368C320.972 306.368 320.847 306.426 320.794 306.443C320.847 306.426 320.909 306.397 320.972 306.368Z" fill="url(#paint1_linear_784_331)"/>
<path d="M172.709 197.894C172.709 197.894 172.683 198.05 172.679 198.105C172.693 198.038 172.707 197.971 172.709 197.894Z" fill="url(#paint2_linear_784_331)"/>
<g clip-path="url(#clip1_784_331)">
<path d="M252.673 222.815C253.044 219.119 253.315 216.867 253.315 216.867C253.48 215.493 253.771 213.154 254.522 207.281C254.522 207.281 255.277 201.381 255.563 198.693C255.578 198.572 255.605 198.293 255.65 197.906C255.721 197.273 255.837 196.318 256.009 195.183C256.047 194.909 256.082 194.636 256.12 194.362C256.319 192.948 257.019 187.388 258.677 173.826C259.488 173.953 260.45 174.201 261.446 174.702C261.477 174.719 261.869 174.915 262.267 175.17C283.358 188.651 314.745 215.105 314.745 215.105C314.82 215.164 315.053 215.361 315.347 215.652C316.39 216.662 317.101 217.737 317.595 218.683C316.268 219.223 314.401 219.986 312.163 220.903C307.363 222.871 304.961 223.853 304.813 223.928C300.469 226.072 298.244 226.725 294.384 228.345C294.125 228.451 290.345 230.016 287.972 231.063C286.032 231.919 285.613 232.03 284.644 232.419C283.929 232.705 283.41 232.934 283.15 233.049C280.409 234.254 279.42 234.538 278.051 235.147C277.389 235.44 277.562 235.396 276.776 235.755C275.244 236.458 274.486 236.702 272.069 237.706C271.741 237.845 271.473 237.954 271.326 238.018C271.089 237.824 270.729 237.533 270.29 237.184C268.652 235.873 268.022 235.414 265.63 233.562C265.57 233.518 265.652 233.581 261.96 230.712C261.956 230.711 260.872 229.867 260.865 229.862C260.638 229.682 260.291 229.414 259.874 229.091C257.839 227.518 256.825 226.732 256.295 226.363C255.145 225.559 254.176 224.484 252.949 223.806C252.891 223.775 252.688 223.667 252.601 223.448C252.496 223.177 252.654 222.898 252.659 222.829L252.673 222.815Z" fill="#585858" fill-opacity="0.3"/>
<path d="M252.648 223.073C254.662 206.657 256.672 190.24 258.686 173.823C256.813 173.755 255.363 173.94 254.68 174.161C254.143 174.335 253.541 174.599 253.541 174.599C253.152 174.766 252.876 174.912 252.85 174.925C251.881 175.412 197.851 198.047 190.819 201.011C189.018 201.769 188.621 202.198 189.531 203.094C189.535 203.094 189.538 203.099 189.542 203.103C189.785 203.343 190.115 203.613 190.541 203.933C196.792 208.63 203.044 213.318 209.3 218.008C215.96 222.998 222.597 227.943 229.219 232.839C229.715 232.639 230.206 232.439 230.701 232.244C233.221 231.228 235.745 230.217 238.266 229.201C238.421 229.138 246.563 225.865 246.572 225.858C246.727 225.796 247.241 225.582 247.934 225.302C248.507 225.071 249.062 224.855 249.062 224.855C249.669 224.616 249.784 224.578 250.172 224.422C250.99 224.092 250.83 224.129 251.078 224.045C251.556 223.885 252.008 223.647 252.491 223.508C252.513 223.502 252.576 223.485 252.624 223.426C252.702 223.33 252.687 223.185 252.657 223.066L252.648 223.073Z" fill="#2B2324" fill-opacity="0.3"/>
<path d="M252.616 223.429L229.21 232.841C235.799 237.646 242.388 242.455 248.977 247.26L271.183 237.856C264.991 233.048 258.804 228.237 252.612 223.429L252.616 223.429Z" fill="#6B6B6B" fill-opacity="0.3"/>
<path d="M318.078 222.351C318.086 222.291 318.102 222.064 318.104 221.757C318.117 220.585 317.896 219.547 317.6 218.675C313.34 220.421 309.069 222.149 304.818 223.916C301.335 225.367 297.87 226.874 294.389 228.333C293.504 228.704 292.887 228.962 292.105 229.293C287.537 231.204 283.229 233.005 278.178 235.052C276.583 235.698 274.343 236.602 271.635 237.676C271.484 237.735 271.333 237.798 271.183 237.856L270.349 238.21C263.627 241.056 256.932 243.98 250.178 246.753C249.665 246.963 249.249 247.143 248.986 247.257L248.978 247.256L248.977 247.264C248.199 253.44 247.421 259.62 246.635 265.795C246.627 265.794 246.623 265.794 246.615 265.797C245.282 276.348 243.949 286.904 242.612 297.455C242.232 300.503 241.861 303.552 241.477 306.6C240.95 310.783 240.415 314.965 239.905 319.15C239.632 321.382 240.654 322.23 242.737 321.539C243.023 321.444 243.296 321.319 243.573 321.199C263.258 312.909 282.918 304.563 302.643 296.376C307.127 294.515 309.4 291.207 309.98 286.699C314.572 251.201 317.186 233.498 318.076 222.338L318.078 222.351Z" fill="#2A2323" fill-opacity="0.3"/>
</g>
</g>
<defs>
<linearGradient id="paint0_linear_784_331" x1="350.889" y1="118.057" x2="148.449" y2="372.691" gradientUnits="userSpaceOnUse">
<stop stop-color="#FBB040"/>
<stop offset="1" stop-color="#FF5627"/>
</linearGradient>
<linearGradient id="paint1_linear_784_331" x1="320.936" y1="306.339" x2="320.83" y2="306.472" gradientUnits="userSpaceOnUse">
<stop stop-color="#FBB040"/>
<stop offset="1" stop-color="#FF5627"/>
</linearGradient>
<linearGradient id="paint2_linear_784_331" x1="172.757" y1="197.932" x2="172.642" y2="198.077" gradientUnits="userSpaceOnUse">
<stop stop-color="#FBB040"/>
<stop offset="1" stop-color="#FF5627"/>
</linearGradient>
<clipPath id="clip0_784_331">
<rect width="325.3" height="377.42" fill="white" transform="translate(498.604 235.495) rotate(128.486)"/>
</clipPath>
<clipPath id="clip1_784_331">
<rect width="130.778" height="148.965" fill="white" transform="translate(193.67 165.637) rotate(7.17657)"/>
</clipPath>
</defs>
</svg>
