<svg width="238" height="232" viewBox="0 0 238 232" fill="none" xmlns="http://www.w3.org/2000/svg">
<g clip-path="url(#clip0_784_349)">
<path d="M126.258 203.955C126.256 203.85 126.245 203.77 126.242 203.728L126.235 203.679L122.465 163.067L122.44 162.801C122.44 162.801 122.435 162.769 122.433 162.753C122.278 161.958 121.694 161.523 121.392 161.344C121.274 161.275 121.201 161.246 121.201 161.246L87.1932 144.832C87.1546 144.814 87.0976 144.783 87.0246 144.754C87.0329 144.766 87.0489 144.764 87.0531 144.77L86.9046 144.696C86.9046 144.696 86.9189 144.704 86.929 144.705C86.8275 144.661 86.7034 144.597 86.5692 144.531C86.5935 144.54 86.6078 144.548 86.6262 144.562L86.4961 144.502C86.4961 144.502 86.5448 144.521 86.5674 144.541C86.5104 144.51 86.4373 144.481 86.3702 144.448C86.3744 144.454 86.3845 144.455 86.3946 144.457L86.3376 144.426C86.3376 144.426 86.362 144.436 86.3762 144.443C86.3335 144.42 86.2848 144.401 86.2319 144.376L86.1262 144.325C86.1648 144.343 86.1975 144.364 86.2319 144.376C82.5791 142.613 82.096 138.419 82.0919 138.413L78.5838 102.21C78.5838 102.21 78.5815 102.194 78.5792 102.178L78.5618 102.013C78.5502 101.932 78.5463 101.838 78.536 101.721L78.5112 101.482C78.5112 101.482 78.5042 101.433 78.5036 101.407L78.483 101.174C78.4886 101.258 78.4961 101.333 78.5036 101.407C78.2178 98.4389 80.7289 96.5095 80.7289 96.5095L115.602 72.8176C115.679 72.7638 115.902 72.6268 116.21 72.599L116.199 72.4823L116.23 72.6027C116.33 72.5948 116.445 72.5947 116.564 72.6268C116.52 72.6135 116.479 72.6062 116.449 72.6007C116.536 72.6112 116.631 72.6336 116.765 72.6997L116.198 72.43L155.212 91.145C155.385 91.2285 156.017 91.6038 156.098 92.4586C156.096 92.4425 156.093 92.4264 156.091 92.4103L156.111 92.5913C156.111 92.5913 156.11 92.5651 156.108 92.549C156.124 92.7502 156.13 92.7723 156.119 92.6919L159.502 131.247C159.502 131.247 159.502 131.273 159.501 131.309L159.564 131.973L159.588 132.248L159.616 132.582C159.616 132.582 159.625 132.594 159.621 132.614L159.644 132.952L159.654 133.069C159.654 133.069 159.664 133.16 159.675 133.214C159.75 133.64 159.967 134.462 160.65 134.757L161.083 134.961L161.467 135.145L161.857 135.326L162.761 135.75C162.761 135.75 162.8 135.768 162.82 135.772L196.064 151.328C196.127 151.355 196.18 151.38 196.243 151.407L196.873 151.704C198.972 152.564 199.128 150.474 199.092 149.456C199.08 149.146 199.053 148.943 199.053 148.943L199.019 148.524C199.019 148.524 199.023 148.441 199.013 148.413L198.974 147.874L192.827 67.3185C192.79 66.8579 192.634 66.5061 192.439 66.2256C192.149 65.8078 191.786 65.5908 191.615 65.4972C191.558 65.466 191.528 65.4605 191.528 65.4605L114.607 28.6328C114.607 28.6328 114.578 28.6172 114.564 28.6094L114.021 28.3493C113.329 28.0778 112.676 28.0273 112.097 28.0841C110.779 28.221 109.64 29.0737 109.64 29.0737L109.688 29.0406L39.7102 77.6295C39.5586 77.8055 38.289 79.1824 38.3059 80.4534C38.2997 80.5461 38.3155 80.6325 38.3253 80.723L45.4562 165.328C45.4562 165.328 45.4562 165.328 45.4567 165.354L45.4587 165.459C45.4587 165.459 45.4639 165.518 45.4686 165.55L45.4856 165.803L45.4895 165.898C45.4869 165.97 45.505 166.073 45.5195 166.195C45.5837 166.593 45.737 167.221 46.1188 167.796C46.3845 168.204 46.7503 168.579 47.281 168.847C47.3624 168.888 47.458 168.936 47.5512 168.969L47.7282 169.058L48.1569 169.256C48.1569 169.256 48.1812 169.266 48.1955 169.273L124.878 205.108C126.148 205.704 126.263 204.509 126.256 203.939L126.258 203.955ZM116.348 72.5824C116.348 72.5824 116.395 72.5856 116.425 72.591C116.395 72.5856 116.374 72.5819 116.348 72.5824ZM156.079 92.2413C156.062 92.0764 156.051 91.9074 156.034 91.7687L156.079 92.2413ZM78.4651 100.983L78.3797 100.122C78.4056 100.414 78.4356 100.711 78.4651 100.983ZM78.2282 98.5556L78.1976 98.2318C78.1976 98.2318 78.2121 98.3544 78.2282 98.5556ZM78.3596 99.9151L78.307 99.3942C78.3244 99.5591 78.3399 99.7341 78.3596 99.9151ZM78.306 99.3419L78.2535 98.821C78.2727 98.9758 78.2882 99.1508 78.306 99.3419ZM82.6563 142.648L82.5262 142.588C82.5262 142.588 82.5933 142.621 82.6563 142.648ZM82.8819 142.756C83.0648 142.842 83.3047 142.958 83.573 143.09L82.8819 142.756ZM84.2743 143.426C84.4471 143.51 84.6198 143.593 84.8027 143.678L84.2743 143.426ZM85.7581 144.138L85.3413 143.932C85.4856 144 85.6239 144.072 85.7581 144.138Z" fill="#F4F4F4"/>
<path d="M156.096 92.4429C156.096 92.4429 156.105 92.509 156.106 92.5359C156.105 92.509 156.101 92.4759 156.096 92.4429Z" fill="#F4F4F4"/>
<path d="M86.9222 144.711C86.9222 144.711 86.9912 144.745 87.0162 144.755C86.9869 144.739 86.9576 144.723 86.9222 144.711Z" fill="#F4F4F4"/>
</g>
<defs>
<clipPath id="clip0_784_349">
<rect width="153.904" height="178.118" fill="white" transform="translate(148.1 2.36951) rotate(55.2259)"/>
</clipPath>
</defs>
</svg>
