<svg width="723" height="695" viewBox="0 0 723 695" fill="none" xmlns="http://www.w3.org/2000/svg">
<g clip-path="url(#clip0_784_289)">
<path d="M357.348 77.3023C357.332 77.6238 357.35 77.8728 357.35 78.003L357.361 78.1524L360.109 203.5L360.129 204.319C360.129 204.319 360.137 204.419 360.14 204.469C360.442 206.94 362.139 208.399 363.025 209.016C363.372 209.251 363.59 209.356 363.59 209.356L464.306 267.066C464.42 267.127 464.588 267.235 464.806 267.34C464.783 267.302 464.733 267.305 464.722 267.286L465.161 267.545C465.161 267.545 465.119 267.518 465.088 267.51C465.39 267.668 465.757 267.892 466.154 268.124C466.081 268.089 466.039 268.062 465.986 268.016L466.371 268.228C466.371 268.228 466.226 268.159 466.161 268.093C466.329 268.201 466.547 268.306 466.746 268.421C466.734 268.402 466.704 268.394 466.673 268.387L466.841 268.495C466.841 268.495 466.769 268.46 466.727 268.433C466.853 268.514 466.998 268.583 467.154 268.672L467.467 268.85C467.353 268.788 467.257 268.715 467.154 268.672C477.972 274.87 478.544 287.834 478.555 287.853L481.457 399.623C481.457 399.623 481.461 399.673 481.465 399.723L481.482 400.232C481.5 400.481 481.492 400.772 481.498 401.132L481.522 401.871C481.522 401.871 481.533 402.021 481.529 402.101L481.542 402.821C481.543 402.561 481.536 402.331 481.529 402.101C481.762 411.265 473.643 416.636 473.643 416.636L361.574 481.716C361.325 481.865 360.612 482.236 359.663 482.255L359.669 482.615L359.602 482.239C359.292 482.242 358.94 482.217 358.581 482.093C358.714 482.143 358.837 482.174 358.929 482.198C358.665 482.147 358.378 482.057 357.981 481.826L359.661 482.776L244.094 416.926C243.582 416.633 241.727 415.345 241.663 412.706C241.667 412.756 241.671 412.806 241.674 412.856L241.653 412.297C241.653 412.297 241.649 412.377 241.653 412.427C241.647 411.806 241.632 411.737 241.65 411.986L239.642 293.033C239.642 293.033 239.646 292.953 239.657 292.842L239.607 290.793L239.595 289.943L239.579 288.913C239.579 288.913 239.556 288.875 239.572 288.813L239.575 287.772L239.569 287.412C239.569 287.412 239.559 287.133 239.536 286.964C239.399 285.642 238.911 283.075 236.883 282.019L235.599 281.301L234.461 280.652L233.304 280.015L230.624 278.516C230.624 278.516 230.509 278.455 230.448 278.439L131.888 223.527C131.701 223.43 131.544 223.341 131.357 223.245L129.49 222.198C123.241 219.105 122.308 225.479 122.198 228.611C122.168 229.564 122.204 230.192 122.204 230.192L122.219 231.483C122.219 231.483 122.187 231.735 122.214 231.823L122.216 233.485L123.588 481.824C123.603 483.245 124.004 484.357 124.541 485.259C125.34 486.603 126.405 487.348 126.909 487.672C127.077 487.78 127.168 487.803 127.168 487.803L355.039 617.415C355.039 617.415 355.123 617.469 355.165 617.496L356.773 618.411C358.835 619.393 360.828 619.69 362.615 619.641C366.686 619.508 370.364 617.14 370.364 617.14L370.21 617.231L595.322 483.426C595.825 482.92 600.016 478.973 600.24 475.072C600.279 474.789 600.25 474.521 600.239 474.241L596.729 213.272C596.729 213.272 596.729 213.272 596.733 213.191L596.75 212.87C596.75 212.87 596.746 212.69 596.739 212.59L596.742 211.809L596.751 211.518C596.774 211.296 596.741 210.978 596.723 210.599C596.613 209.366 596.279 207.408 595.233 205.561C594.507 204.252 593.466 203.025 591.897 202.087C591.656 201.944 591.374 201.774 591.095 201.654L590.572 201.342L589.3 200.642C589.3 200.642 589.228 200.608 589.186 200.581L361.832 74.0654C358.067 71.9643 357.454 75.6027 357.352 77.3521L357.348 77.3023ZM359.234 482.276C359.234 482.276 359.093 482.256 359.001 482.232C359.093 482.256 359.154 482.271 359.234 482.276ZM241.673 413.376C241.69 413.886 241.688 414.407 241.71 414.836L241.673 413.376ZM481.555 403.411L481.63 406.068C481.614 405.169 481.587 404.249 481.555 403.411ZM481.755 410.905L481.779 411.905C481.779 411.905 481.761 411.525 481.755 410.905ZM481.647 406.708L481.695 408.316C481.678 407.807 481.668 407.267 481.647 406.708ZM481.687 408.477L481.735 410.086C481.71 409.607 481.7 409.067 481.687 408.477ZM477.743 274.746L478.129 274.959C478.129 274.959 477.93 274.843 477.743 274.746ZM477.075 274.364C476.533 274.063 475.822 273.653 475.028 273.19L477.075 274.364ZM472.951 272.008C472.439 271.715 471.927 271.422 471.385 271.12L472.951 272.008ZM468.556 269.502L469.789 270.224C469.361 269.985 468.953 269.734 468.556 269.502Z" fill="#F4F4F4"/>
<path d="M241.667 412.756C241.667 412.756 241.652 412.556 241.656 412.475C241.652 412.556 241.66 412.656 241.667 412.756Z" fill="#F4F4F4"/>
<path d="M465.108 267.498C465.108 267.498 464.909 267.381 464.836 267.346C464.92 267.4 465.005 267.455 465.108 267.498Z" fill="#F4F4F4"/>
</g>
<defs>
<clipPath id="clip0_784_289">
<rect width="473.091" height="547.524" fill="white" transform="translate(246.642 690.68) rotate(-120.727)"/>
</clipPath>
</defs>
</svg>
