<svg width="27" height="31" viewBox="0 0 27 31" fill="none" xmlns="http://www.w3.org/2000/svg">
<g clip-path="url(#clip0_784_520)">
<path d="M26.8635 7.86742C26.8482 7.87752 26.8355 7.88384 26.8291 7.88762L26.8215 7.89141L20.5919 11.3838L20.5511 11.4066C20.5511 11.4066 20.546 11.4091 20.5434 11.4104C20.4134 11.4672 20.2923 11.4268 20.2362 11.4015C20.2146 11.3914 20.2031 11.3838 20.2031 11.3838L14.4349 8.15151C14.4286 8.14772 14.4184 8.14268 14.4069 8.1351C14.4094 8.1351 14.4107 8.13762 14.412 8.13762L14.3865 8.12374C14.3865 8.12374 14.389 8.125 14.3903 8.12626C14.3738 8.11616 14.3521 8.1048 14.3291 8.09217C14.333 8.0947 14.3355 8.09596 14.3393 8.09722L14.3177 8.08459C14.3177 8.08459 14.3253 8.08965 14.3304 8.09091C14.3202 8.08586 14.3087 8.07828 14.2973 8.07197C14.2985 8.07197 14.2998 8.07323 14.3011 8.07449L14.2909 8.06944C14.2909 8.06944 14.2947 8.07197 14.2973 8.07323C14.2896 8.06944 14.282 8.06439 14.273 8.05934L14.2552 8.04924C14.2616 8.05303 14.2679 8.05555 14.273 8.05934C13.6535 7.71212 13.0009 8.05934 12.9996 8.05934L7.43158 11.1515C7.43158 11.1515 7.42904 11.1528 7.42649 11.154L7.40099 11.1679C7.38824 11.1742 7.37422 11.1831 7.35638 11.1932L7.31941 11.2134C7.31941 11.2134 7.31176 11.2172 7.30794 11.2197L7.27224 11.2399C7.28499 11.2323 7.29646 11.226 7.30794 11.2197C6.85158 11.4735 6.82481 12.024 6.82481 12.024L6.90002 19.3611C6.90002 19.3775 6.90257 19.423 6.92934 19.4697L6.9115 19.4798L6.93189 19.4722C6.94081 19.4874 6.95229 19.5038 6.96886 19.5177C6.96249 19.5126 6.95739 19.5076 6.95356 19.5038C6.96376 19.5152 6.97651 19.5265 6.99945 19.5391L6.90385 19.4848L13.5044 23.2045C13.5337 23.221 13.651 23.274 13.7823 23.2008C13.7797 23.202 13.7772 23.2033 13.7746 23.2045L13.8027 23.1894C13.8027 23.1894 13.7988 23.1919 13.7963 23.1932C13.8269 23.1755 13.8307 23.1742 13.818 23.1806L19.7123 19.8371C19.7123 19.8371 19.7161 19.8346 19.7212 19.8308L19.8232 19.774L19.8653 19.75L19.9163 19.721C19.9163 19.721 19.9188 19.721 19.9214 19.7184L19.9724 19.6881L19.9902 19.678C19.9902 19.678 20.0042 19.6705 20.0131 19.6667C20.082 19.6351 20.2222 19.5846 20.3331 19.6528L20.4058 19.6944L20.4708 19.7311L20.5358 19.7689L20.6875 19.8561C20.6875 19.8561 20.6938 19.8598 20.6964 19.8624L26.2644 23.0707C26.2746 23.077 26.2835 23.0821 26.2937 23.0884L26.3995 23.149C26.7335 23.3636 26.448 23.5934 26.2976 23.6894C26.2517 23.7184 26.2198 23.7348 26.2198 23.7348L26.1561 23.7715C26.1561 23.7715 26.1446 23.7803 26.1395 23.7816L26.0579 23.8295L13.8345 30.947C13.7644 30.9874 13.6981 31 13.6382 31C13.549 31 13.4814 30.9697 13.4508 30.9545C13.4406 30.9495 13.4368 30.9457 13.4368 30.9457L0.433331 23.6048C0.433331 23.6048 0.428232 23.6023 0.425683 23.601L0.333903 23.5492C0.225551 23.4773 0.152891 23.3889 0.103177 23.3005C-0.00899913 23.0985 -7.60394e-05 22.851 -7.60394e-05 22.851V22.8611V8.03409C0.0101218 7.99495 0.0815065 7.67677 0.266342 7.55303C0.279089 7.54293 0.293111 7.53662 0.307133 7.52904L13.2125 0.150249C13.2125 0.150249 13.2125 0.150249 13.2163 0.147724L13.2316 0.137625C13.2316 0.137625 13.2405 0.132572 13.2456 0.130047L13.2839 0.107321L13.2979 0.0984821C13.3081 0.0909061 13.3246 0.0833302 13.3438 0.0732307C13.4075 0.0429268 13.5133 0.00252342 13.6344 -1.90735e-06C13.7198 -0.00252724 13.8103 0.0126247 13.9021 0.0618668C13.9161 0.0694427 13.9327 0.0782795 13.9467 0.0883808L13.9773 0.104795L14.0487 0.146461C14.0487 0.146461 14.0525 0.148987 14.0551 0.150249L26.8916 7.55556C27.1045 7.67803 26.9438 7.81313 26.861 7.86868L26.8635 7.86742ZM6.94081 19.4912C6.94081 19.4912 6.94591 19.4975 6.94974 19.5013C6.94591 19.4975 6.94336 19.4949 6.94081 19.4912ZM13.7491 23.2197C13.7236 23.2336 13.6981 23.2487 13.6765 23.2601L13.7491 23.2197ZM7.24293 11.2563L7.11035 11.3295C7.15497 11.3043 7.20086 11.279 7.24293 11.2563ZM6.86943 11.4634L6.81972 11.4912C6.81972 11.4912 6.83884 11.4811 6.86943 11.4634ZM7.07849 11.3472L6.99818 11.3914C7.02367 11.3775 7.05044 11.3624 7.07849 11.3472ZM6.99053 11.3965L6.91022 11.4407C6.93444 11.428 6.96121 11.4129 6.99053 11.3965ZM13.6663 7.71969L13.6446 7.70707C13.6446 7.70707 13.6561 7.71338 13.6663 7.71969ZM13.7045 7.74116C13.7351 7.75884 13.7759 7.78156 13.8218 7.80682L13.7045 7.74116ZM13.9403 7.87374C13.9697 7.89015 13.999 7.90656 14.0296 7.92424L13.9403 7.87374ZM14.1915 8.01515L14.1201 7.97601C14.1443 7.9899 14.1685 8.00253 14.1915 8.01515Z" fill="#898989" fill-opacity="0.15"/>
<path d="M13.7798 23.2019C13.7798 23.2019 13.79 23.1969 13.7938 23.1943C13.79 23.1969 13.7849 23.1994 13.7798 23.2019Z" fill="#898989" fill-opacity="0.15"/>
<path d="M14.3904 8.12495C14.3904 8.12495 14.4019 8.13126 14.4057 8.13379C14.4006 8.13126 14.3955 8.12874 14.3904 8.12495Z" fill="#898989" fill-opacity="0.15"/>
</g>
<defs>
<clipPath id="clip0_784_520">
<rect width="27" height="31" fill="white" transform="matrix(1 0 0 -1 0 31)"/>
</clipPath>
</defs>
</svg>
