<svg width="1136" height="954" viewBox="0 0 1136 954" fill="none" xmlns="http://www.w3.org/2000/svg">
<g clip-path="url(#clip0_793_757)">
<path d="M912.293 727.742C912.066 727.152 911.834 726.72 911.731 726.486L911.593 726.226L806.693 503.429L806.004 501.974C806.004 501.974 805.911 501.801 805.865 501.715C803.353 497.521 799.141 496.261 797.059 495.864C796.248 495.72 795.774 495.707 795.774 495.707L568.933 472.832C568.678 472.812 568.29 472.753 567.816 472.74C567.888 472.791 567.974 472.745 568.01 472.77L567.015 472.657C567.015 472.657 567.112 472.672 567.173 472.662C566.505 472.619 565.669 472.511 564.771 472.414C564.929 472.418 565.026 472.433 565.159 472.473L564.297 472.401C564.297 472.401 564.613 472.409 564.781 472.475C564.394 472.415 563.919 472.402 563.471 472.354C563.506 472.379 563.568 472.369 563.629 472.358L563.241 472.299C563.241 472.299 563.399 472.303 563.496 472.318C563.205 472.273 562.889 472.265 562.537 472.231L561.833 472.163C562.088 472.182 562.318 472.237 562.537 472.231C538.172 469.776 526.808 446.963 526.772 446.938L432.424 248.634C432.424 248.634 432.378 248.548 432.332 248.462L431.894 247.561C431.663 247.129 431.446 246.6 431.148 245.959L430.515 244.652C430.515 244.652 430.376 244.392 430.319 244.245L429.722 242.963C429.928 243.431 430.124 243.838 430.319 244.245C422.594 227.982 432.885 211.834 432.885 211.834L582.184 5.20023C582.513 4.73462 583.497 3.49587 585.186 2.70235L584.887 2.06138L585.308 2.68138C585.862 2.42881 586.514 2.19106 587.258 2.12621C586.978 2.1429 586.733 2.18487 586.55 2.21638C587.064 2.09658 587.65 2.0274 588.548 2.12495L584.774 1.7662L844.77 27.3493C845.922 27.466 850.28 28.291 852.498 32.9761C852.452 32.8896 852.406 32.8032 852.359 32.7167L852.843 33.7035C852.843 33.7035 852.786 33.556 852.74 33.4695C853.245 34.5786 853.327 34.6903 853.095 34.2581L951.568 246.17C951.568 246.17 951.625 246.318 951.692 246.527L953.416 250.164L954.116 251.68L954.966 253.516C954.966 253.516 955.037 253.567 955.058 253.689L955.882 255.562L956.181 256.203C956.181 256.203 956.423 256.696 956.598 256.981C957.898 259.243 960.822 263.461 965.305 263.729L968.181 263.991L970.742 264.243L973.328 264.46L979.335 265.002C979.335 265.002 979.591 265.021 979.713 265L1200.45 284.581C1200.87 284.604 1201.22 284.638 1201.63 284.661L1205.82 285.044C1219.5 285.588 1216.09 273.399 1213.79 267.689C1213.09 265.954 1212.52 264.855 1212.52 264.855L1211.47 262.551C1211.47 262.551 1211.32 262.072 1211.2 261.935L1209.87 258.954L1009.36 -185.718C1008.2 -188.257 1006.59 -189.931 1004.91 -191.121C1002.4 -192.893 999.898 -193.376 998.735 -193.554C998.347 -193.613 998.164 -193.581 998.164 -193.581L485.696 -243.617C485.696 -243.617 485.502 -243.647 485.406 -243.661L481.789 -244.016C477.303 -244.126 473.489 -243.062 470.32 -241.543C463.117 -238.04 458.403 -230.843 458.403 -230.843L458.605 -231.129L161.168 189.46C160.669 190.773 156.291 201.216 159 208.397C159.155 208.937 159.422 209.394 159.664 209.888L374.09 675.518C374.09 675.518 374.09 675.518 374.147 675.666L374.374 676.256C374.374 676.256 374.523 676.577 374.616 676.75L375.234 678.154L375.45 678.683C375.585 679.101 375.898 679.645 376.233 680.311C377.415 682.436 379.576 685.684 382.926 688.161C385.274 689.929 388.12 691.297 391.686 691.723C392.231 691.786 392.874 691.865 393.471 691.857L394.659 691.999L397.5 692.235C397.5 692.235 397.658 692.239 397.755 692.254L906.824 737.146C915.26 737.9 913.459 730.877 912.247 727.656L912.293 727.742ZM585.938 2.32135C585.938 2.32135 586.208 2.24355 586.392 2.21204C586.208 2.24355 586.086 2.26455 585.938 2.32135ZM851.947 31.7806C851.51 30.8802 851.098 29.9441 850.717 29.1913L851.947 31.7806ZM429.228 241.915L426.974 237.204C427.72 238.807 428.502 240.434 429.228 241.915ZM422.892 228.623L422.053 226.847C422.053 226.847 422.388 227.514 422.892 228.623ZM426.433 236.07L425.064 233.221C425.502 234.122 425.95 235.083 426.433 236.07ZM424.951 232.926L423.582 230.077C424.009 230.917 424.457 231.878 424.951 232.926ZM538.682 469.814L537.821 469.742C537.821 469.742 538.269 469.79 538.682 469.814ZM540.187 469.965C541.401 470.071 543.002 470.236 544.798 470.431L540.187 469.965ZM549.47 470.888C550.622 471.004 551.775 471.121 552.989 471.227L549.47 470.888ZM559.359 471.864L556.569 471.556C557.528 471.644 558.462 471.766 559.359 471.864Z" fill="url(#paint0_linear_793_757)"/>
<path d="M852.452 32.8898C852.452 32.8898 852.637 33.2351 852.694 33.3825C852.637 33.2351 852.545 33.0625 852.452 32.8898Z" fill="url(#paint1_linear_793_757)"/>
<path d="M567.148 472.697C567.148 472.697 567.597 472.746 567.754 472.751C567.561 472.721 567.367 472.691 567.148 472.697Z" fill="url(#paint2_linear_793_757)"/>
<g clip-path="url(#clip1_793_757)">
<path d="M778.375 426.609C778.301 426.388 778.222 426.226 778.188 426.139L778.141 426.041L743.049 342.561L742.818 342.016C742.818 342.016 742.787 341.951 742.771 341.919C741.913 340.339 740.385 339.811 739.627 339.633C739.331 339.567 739.157 339.555 739.157 339.555L656.169 327.64C656.075 327.629 655.934 327.601 655.76 327.589C655.785 327.609 655.818 327.593 655.831 327.603L655.467 327.546C655.467 327.546 655.502 327.553 655.525 327.55C655.28 327.524 654.975 327.472 654.646 327.422C654.704 327.426 654.74 327.433 654.788 327.45L654.472 327.41C654.472 327.41 654.588 327.418 654.649 327.445C654.508 327.417 654.334 327.405 654.169 327.38C654.182 327.39 654.205 327.387 654.227 327.384L654.086 327.356C654.086 327.356 654.144 327.36 654.179 327.367C654.073 327.346 653.957 327.338 653.828 327.32L653.571 327.284C653.664 327.295 653.748 327.319 653.828 327.32C644.915 326.041 641.092 317.484 641.08 317.474L609.485 243.157C609.485 243.157 609.469 243.124 609.454 243.092L609.307 242.754C609.229 242.592 609.157 242.394 609.058 242.154L608.845 241.664C608.845 241.664 608.798 241.566 608.78 241.511L608.58 241.031C608.649 241.206 608.714 241.359 608.78 241.511C606.193 235.417 610.224 229.643 610.224 229.643L668.275 156.036C668.403 155.87 668.783 155.43 669.416 155.165L669.316 154.925L669.461 155.159C669.669 155.075 669.912 154.998 670.187 154.985C670.083 154.987 669.993 154.999 669.925 155.007C670.116 154.971 670.332 154.955 670.66 155.005L669.279 154.815L764.407 168.238C764.828 168.298 766.417 168.669 767.159 170.425C767.143 170.392 767.128 170.36 767.112 170.327L767.274 170.697C767.274 170.697 767.256 170.642 767.24 170.61C767.409 171.025 767.437 171.067 767.359 170.905L800.258 250.286C800.258 250.286 800.276 250.341 800.298 250.419L800.875 251.782L801.109 252.35L801.393 253.038C801.393 253.038 801.418 253.057 801.424 253.102L801.698 253.803L801.798 254.043C801.798 254.043 801.879 254.228 801.938 254.336C802.381 255.187 803.39 256.782 805.033 256.95L806.086 257.09L807.023 257.223L807.969 257.342L810.168 257.634C810.168 257.634 810.262 257.645 810.307 257.64L891.104 268.25C891.255 268.265 891.384 268.283 891.536 268.298L893.068 268.503C898.088 268.915 897.024 264.384 896.267 262.25C896.035 261.602 895.844 261.19 895.844 261.19L895.492 260.327C895.492 260.327 895.446 260.148 895.405 260.096L894.963 258.98L828.175 92.5036C827.788 91.553 827.223 90.9128 826.624 90.4496C825.73 89.7597 824.817 89.5437 824.393 89.4603C824.251 89.4326 824.183 89.4413 824.183 89.4413L636.676 63.1268C636.676 63.1268 636.605 63.1129 636.57 63.106L635.247 62.9198C633.6 62.8097 632.182 63.1416 630.994 63.6509C628.294 64.8263 626.45 67.3976 626.45 67.3976L626.529 67.2955L510.741 217.218C510.537 217.692 508.767 221.461 509.651 224.142C509.7 224.342 509.791 224.515 509.872 224.7L581.446 399.092C581.446 399.092 581.446 399.092 581.465 399.147L581.539 399.368C581.539 399.368 581.589 399.488 581.62 399.553L581.826 400.078L581.897 400.276C581.94 400.431 582.047 400.636 582.159 400.886C582.561 401.685 583.304 402.912 584.497 403.874C585.332 404.56 586.357 405.106 587.66 405.318C587.86 405.35 588.095 405.388 588.314 405.395L588.748 405.465L589.788 405.596C589.788 405.596 589.846 405.6 589.882 405.607L776.22 429.979C779.308 430.387 778.755 427.779 778.359 426.576L778.375 426.609ZM669.699 155.037C669.699 155.037 669.799 155.012 669.867 155.003C669.799 155.012 669.754 155.018 669.699 155.037ZM766.975 169.977C766.828 169.639 766.691 169.289 766.563 169.007L766.975 169.977ZM608.415 240.638L607.659 238.873C607.909 239.473 608.171 240.083 608.415 240.638ZM606.293 235.657L606.012 234.991C606.012 234.991 606.125 235.241 606.293 235.657ZM607.478 238.448L607.02 237.38C607.166 237.717 607.316 238.078 607.478 238.448ZM606.982 237.27L606.524 236.202C606.667 236.517 606.817 236.877 606.982 237.27ZM645.101 326.063L644.786 326.023C644.786 326.023 644.95 326.048 645.101 326.063ZM645.652 326.142C646.096 326.2 646.682 326.285 647.339 326.385L645.652 326.142ZM649.048 326.625C649.47 326.685 649.892 326.746 650.336 326.804L649.048 326.625ZM652.667 327.136L651.646 326.98C651.997 327.027 652.338 327.087 652.667 327.136Z" fill="#B8B5B5"/>
<path d="M767.144 170.392C767.144 170.392 767.206 170.522 767.225 170.577C767.206 170.522 767.175 170.457 767.144 170.392Z" fill="#B8B5B5"/>
<path d="M655.515 327.563C655.515 327.563 655.68 327.588 655.738 327.592C655.667 327.578 655.596 327.564 655.515 327.563Z" fill="#B8B5B5"/>
<g clip-path="url(#clip2_793_757)">
<path d="M710.069 230.821C710.955 228.603 711.523 227.26 711.523 227.26C711.869 226.44 712.464 225.046 713.972 221.55C713.972 221.55 715.487 218.038 716.141 216.428C716.172 216.356 716.239 216.188 716.335 215.957C716.492 215.578 716.733 215.009 717.041 214.338C717.113 214.176 717.183 214.013 717.256 213.851C717.63 213.012 719.05 209.7 722.486 201.614C722.964 201.836 723.515 202.16 724.041 202.647C724.057 202.663 724.265 202.854 724.465 203.082C735.103 215.162 749.799 237.088 749.799 237.088C749.835 237.138 749.944 237.301 750.074 237.533C750.539 238.343 750.787 239.133 750.925 239.806C750.008 239.904 748.719 240.043 747.173 240.212C743.857 240.575 742.198 240.755 742.093 240.775C739.028 241.329 737.537 241.336 734.863 241.651C734.684 241.671 732.07 241.967 730.418 242.192C729.067 242.376 728.788 242.37 728.12 242.438C727.627 242.488 727.265 242.537 727.084 242.562C725.177 242.82 724.515 242.82 723.561 242.953C723.099 243.016 723.214 243.02 722.665 243.102C721.593 243.264 721.081 243.28 719.409 243.471C719.181 243.498 718.997 243.519 718.894 243.532C718.782 243.37 718.611 243.126 718.402 242.832C717.623 241.731 717.315 241.335 716.166 239.766C716.137 239.728 716.176 239.782 714.405 237.352C714.402 237.351 713.882 236.637 713.879 236.632C713.771 236.481 713.604 236.253 713.403 235.98C712.425 234.646 711.939 233.98 711.677 233.658C711.109 232.957 710.701 232.12 710.063 231.483C710.033 231.453 709.927 231.351 709.912 231.2C709.895 231.014 710.042 230.869 710.057 230.828L710.069 230.821Z" fill="#585858" fill-opacity="0.3"/>
<path d="M710.008 230.977C714.17 221.189 718.329 211.401 722.491 201.614C721.346 201.239 720.417 201.095 719.956 201.111C719.593 201.122 719.174 201.179 719.174 201.179C718.904 201.213 718.708 201.254 718.689 201.257C718.003 201.386 680.59 205.773 675.719 206.354C674.471 206.503 674.149 206.697 674.552 207.412C674.554 207.413 674.556 207.417 674.557 207.42C674.665 207.612 674.821 207.837 675.028 208.111C678.056 212.124 681.086 216.133 684.119 220.143C687.348 224.41 690.57 228.646 693.793 232.848C694.135 232.813 694.474 232.776 694.814 232.744C696.553 232.564 698.292 232.387 700.03 232.207C700.137 232.197 705.751 231.621 705.757 231.618C705.864 231.607 706.22 231.566 706.698 231.516C707.093 231.476 707.475 231.44 707.475 231.44C707.892 231.401 707.97 231.397 708.237 231.37C708.802 231.311 708.697 231.306 708.864 231.298C709.189 231.284 709.51 231.217 709.833 231.217C709.847 231.218 709.89 231.219 709.93 231.191C709.995 231.145 710.012 231.052 710.014 230.974L710.008 230.977Z" fill="#2B2324" fill-opacity="0.3"/>
<path d="M709.924 231.191L693.787 232.848C697.005 236.989 700.222 241.131 703.44 245.272L718.834 243.406C715.862 239.335 712.894 235.262 709.922 231.19L709.924 231.191Z" fill="#6B6B6B" fill-opacity="0.3"/>
<path d="M750.571 242.158C750.586 242.122 750.637 241.985 750.692 241.796C750.909 241.074 750.956 240.393 750.929 239.802C747.986 240.124 745.039 240.433 742.098 240.769C739.688 241.047 737.278 241.362 734.868 241.645C734.255 241.717 733.828 241.767 733.286 241.832C730.123 242.202 727.141 242.549 723.656 242.917C722.555 243.032 721.01 243.193 719.146 243.375C719.042 243.385 718.938 243.397 718.834 243.407L718.256 243.477C713.596 244.041 708.939 244.658 704.272 245.172C703.918 245.21 703.629 245.248 703.446 245.271L703.441 245.269L703.439 245.274C701.861 248.953 700.282 252.633 698.699 256.31C698.694 256.308 698.692 256.307 698.686 256.307C695.987 262.591 693.287 268.877 690.586 275.16C689.81 276.977 689.038 278.795 688.259 280.61C687.191 283.102 686.117 285.591 685.058 288.087C684.492 289.417 684.973 290.123 686.383 290.067C686.577 290.059 686.768 290.03 686.96 290.005C700.599 288.38 714.232 286.716 727.877 285.162C730.978 284.809 732.971 283.168 734.131 280.486C743.277 259.364 748.039 248.888 750.572 242.15L750.571 242.158Z" fill="#2A2323" fill-opacity="0.3"/>
</g>
</g>
</g>
<defs>
<linearGradient id="paint0_linear_793_757" x1="310.938" y1="-22.3212" x2="1069.24" y2="513.943" gradientUnits="userSpaceOnUse">
<stop stop-color="#FBB040"/>
<stop offset="1" stop-color="#FF5627"/>
</linearGradient>
<linearGradient id="paint1_linear_793_757" x1="852.377" y1="32.9971" x2="852.77" y2="33.2752" gradientUnits="userSpaceOnUse">
<stop stop-color="#FBB040"/>
<stop offset="1" stop-color="#FF5627"/>
</linearGradient>
<linearGradient id="paint2_linear_793_757" x1="567.25" y1="472.554" x2="567.679" y2="472.858" gradientUnits="userSpaceOnUse">
<stop stop-color="#FBB040"/>
<stop offset="1" stop-color="#FF5627"/>
</linearGradient>
<clipPath id="clip0_793_757">
<rect width="928.761" height="1077.03" fill="white" transform="translate(621.876 -462) rotate(35.2677)"/>
</clipPath>
<clipPath id="clip1_793_757">
<rect width="341.532" height="396.055" fill="white" transform="translate(690.089 -15) rotate(37.6798)"/>
</clipPath>
<clipPath id="clip2_793_757">
<rect width="84.0954" height="95.7903" fill="white" transform="translate(683.767 185) rotate(23.2202)"/>
</clipPath>
</defs>
</svg>
