<svg width="145" height="44" viewBox="0 0 145 44" fill="none" xmlns="http://www.w3.org/2000/svg">
<path d="M69.9272 19.6783C71.0983 20.7696 71.6838 22.1702 71.6838 23.8789C71.6838 25.5875 71.0983 26.987 69.9272 28.0795C68.7561 29.1708 67.3351 29.7171 65.663 29.7171C63.9909 29.7171 62.5223 29.1708 61.3429 28.0795C60.1635 26.987 59.5743 25.5875 59.5743 23.8789C59.5743 22.1702 60.1635 20.7708 61.3429 19.6783C62.5223 18.5858 63.9611 18.0407 65.663 18.0407C67.3649 18.0407 68.7561 18.5869 69.9272 19.6783ZM67.8564 26.2748C68.4979 25.6586 68.8192 24.86 68.8192 23.8789C68.8192 22.8977 68.4979 22.1003 67.8564 21.4829C67.2149 20.8668 66.4842 20.5587 65.663 20.5587C64.8418 20.5587 64.0635 20.8632 63.4137 21.4723C62.7651 22.0813 62.4402 22.8835 62.4402 23.8789C62.4402 24.8742 62.7651 25.6764 63.4137 26.2855C64.0635 26.8945 64.8121 27.1991 65.663 27.1991C66.5139 27.1991 67.2149 26.891 67.8564 26.2748Z" fill="#2A2323"/>
<path d="M81.6654 18.2409L81.5095 21.0705H80.8597C78.2033 21.0705 76.8751 22.6595 76.8751 25.8399V29.4279H73.9213V18.3084H76.8751V20.3359C77.8903 18.8796 79.2256 18.152 80.8823 18.152C81.225 18.152 81.4869 18.1817 81.6654 18.2409Z" fill="#2A2323"/>
<path d="M93.9522 24.6586H85.4476C85.5964 25.4465 85.9284 26.0734 86.4437 26.5414C86.959 27.0095 87.5589 27.2429 88.2456 27.2429C89.5142 27.2429 90.439 26.7523 91.0209 25.7724L93.6618 26.3293C93.1846 27.4586 92.4753 28.3129 91.5351 28.8923C90.5949 29.4718 89.4988 29.7609 88.2456 29.7609C86.6341 29.7609 85.2762 29.2111 84.1718 28.1115C83.0674 27.0118 82.5151 25.6006 82.5151 23.8777C82.5151 22.1548 83.0709 20.7388 84.1825 19.6321C85.2941 18.5253 86.6627 17.972 88.2896 17.972C89.8118 17.972 91.1209 18.5028 92.217 19.5657C93.3143 20.6286 93.8915 21.9913 93.9522 23.6549V24.6574V24.6586ZM86.577 21.0706C86.0474 21.4272 85.6999 21.932 85.5368 22.5861H90.9305C90.7508 21.9024 90.4235 21.3905 89.9451 21.0481C89.4678 20.7056 88.9156 20.535 88.2884 20.535C87.6612 20.535 87.1054 20.7139 86.5758 21.0694L86.577 21.0706Z" fill="#2A2323"/>
<path d="M108.186 29.4504H105.523L103.329 22.8989L101.113 29.4504H98.4497L94.7341 18.3084H97.6666L99.8826 25.1503L102.165 18.3084H104.471L106.753 25.1716L108.969 18.3084H111.902L108.186 29.4504Z" fill="#2A2323"/>
<path d="M116.6 13.7512C116.943 14.1007 117.116 14.5131 117.116 14.9883C117.116 15.4634 116.944 15.8876 116.6 16.2135C116.256 16.5405 115.831 16.7041 115.324 16.7041C114.817 16.7041 114.373 16.5405 114.038 16.2135C113.702 15.8864 113.534 15.4776 113.534 14.9883C113.534 14.4989 113.706 14.1007 114.05 13.7512C114.393 13.4016 114.819 13.2274 115.326 13.2274C115.833 13.2274 116.257 13.4016 116.601 13.7512H116.6ZM113.847 29.4279V18.3085H116.801V29.4279H113.847Z" fill="#2A2323"/>
<path d="M131.327 29.4279H128.373V28.5593C127.373 29.3615 126.141 29.7632 124.68 29.7632C123.218 29.7632 121.92 29.2063 120.83 28.0913C119.741 26.9775 119.196 25.5733 119.196 23.88C119.196 22.1867 119.744 20.779 120.841 19.6569C121.938 18.5348 123.216 17.9743 124.679 17.9743C126.141 17.9743 127.387 18.3831 128.372 19.1995V13.3839H131.326V29.4291L131.327 29.4279ZM127.41 26.2748C128.051 25.6586 128.373 24.86 128.373 23.8788C128.373 22.8977 128.051 22.0955 127.41 21.4722C126.769 20.8478 126.029 20.5361 125.194 20.5361C124.284 20.5361 123.534 20.8407 122.945 21.4497C122.356 22.0588 122.06 22.8681 122.06 23.8788C122.06 24.8896 122.356 25.6953 122.945 26.2973C123.534 26.8992 124.284 27.2002 125.194 27.2002C126.029 27.2002 126.769 26.8921 127.41 26.276V26.2748Z" fill="#2A2323"/>
<path d="M145 24.6586H136.494C136.643 25.4465 136.975 26.0734 137.49 26.5414C138.006 27.0095 138.606 27.2429 139.292 27.2429C140.561 27.2429 141.486 26.7523 142.068 25.7724L144.708 26.3293C144.231 27.4586 143.522 28.3129 142.582 28.8923C141.642 29.4718 140.545 29.7609 139.292 29.7609C137.681 29.7609 136.323 29.2111 135.218 28.1115C134.114 27.0118 133.562 25.6006 133.562 23.8777C133.562 22.1548 134.118 20.7388 135.229 19.6321C136.341 18.5253 137.709 17.972 139.336 17.972C140.858 17.972 142.168 18.5028 143.265 19.5657C144.361 20.6286 144.939 21.9913 145 23.6549V24.6574V24.6586ZM137.625 21.0706C137.095 21.4272 136.748 21.932 136.583 22.5861H141.977C141.797 21.9024 141.47 21.3905 140.992 21.0481C140.514 20.7056 139.962 20.535 139.335 20.535C138.708 20.535 138.152 20.7139 137.624 21.0694L137.625 21.0706Z" fill="#2A2323"/>
<path d="M50.6793 16.768C52.9572 16.768 54.3877 17.9139 54.9685 20.2055L58.095 19.3239C57.7867 18.267 57.2702 17.3202 56.5347 16.4896C56.4193 16.3569 56.3015 16.2241 56.1753 16.0985C56.1527 16.0725 56.1265 16.0464 56.1015 16.0251L56.0313 15.9552C55.9385 15.8663 55.8456 15.7822 55.7492 15.7004C55.6564 15.6186 55.5636 15.5416 55.4672 15.4681C54.1212 14.397 52.5407 13.8246 50.7317 13.7476C50.6163 13.7441 50.502 13.7405 50.383 13.7405C50.264 13.7405 50.1497 13.7441 50.0343 13.7476C48.2241 13.8246 46.6448 14.397 45.2988 15.4681C45.2024 15.5416 45.1096 15.6198 45.0167 15.7004C44.9203 15.7822 44.8275 15.8663 44.7347 15.9552L44.6645 16.0251C44.6383 16.0476 44.6121 16.0737 44.5907 16.0985C44.4645 16.2241 44.3491 16.3569 44.2313 16.4896C42.9709 17.915 42.333 19.6723 42.333 21.7661C42.333 23.4167 42.7222 24.86 43.5088 26.0899C43.8314 26.603 44.2277 27.0829 44.6918 27.5225C46.164 28.9219 47.948 29.6672 50.0355 29.7561C50.1283 29.7632 50.2176 29.7632 50.3104 29.7632H50.3842C50.5032 29.7632 50.6174 29.7597 50.7329 29.7561C52.8204 29.6672 54.6043 28.9219 56.0765 27.5225C56.5395 27.0829 56.937 26.603 57.2595 26.0899C57.6463 25.4856 57.9355 24.8292 58.1307 24.1217L55.1447 23.3658C54.4008 25.6112 52.9132 26.7333 50.6805 26.7333C49.2393 26.7333 48.0706 26.276 47.1756 25.3612C46.2806 24.4476 45.8332 23.2484 45.8332 21.7673C45.8332 20.2861 46.2806 19.0822 47.1756 18.1568C48.0706 17.2301 49.2393 16.768 50.6805 16.768H50.6793Z" fill="#2A2323"/>
<path d="M19.2637 14.4136C19.2364 13.3294 19.2328 12.667 19.2328 12.667C19.2304 12.2629 19.2292 11.5745 19.2328 9.84565C19.2328 9.84565 19.2364 8.10853 19.2209 7.31936C19.2209 7.28381 19.2185 7.20205 19.2173 7.0883C19.2149 6.90226 19.2138 6.62143 19.2221 6.2861C19.2233 6.20552 19.2233 6.12495 19.2245 6.04437C19.2304 5.62727 19.2304 3.99087 19.2161 0.00119019C19.4565 0.00829981 19.7457 0.0450329 20.054 0.154047C20.0635 0.157602 20.1849 0.20026 20.3099 0.259506C26.9412 3.39603 37.0441 9.91556 37.0441 9.91556C37.068 9.92978 37.1429 9.97836 37.2393 10.0518C37.5797 10.3066 37.8261 10.5922 38.0046 10.8481C37.638 11.0531 37.1227 11.3422 36.505 11.6894C35.1804 12.4347 34.5175 12.8068 34.4771 12.8341C33.2917 13.6137 32.6681 13.8839 31.6041 14.4942C31.5327 14.5344 30.4902 15.1257 29.838 15.5156C29.3048 15.8343 29.187 15.8817 28.9192 16.0298C28.7216 16.1388 28.5788 16.2242 28.5074 16.2668C27.5446 16.8403 27.3601 16.8747 26.752 17.2835C26.3652 17.5442 25.8951 17.6745 25.5285 17.9637C25.5214 17.9696 25.4928 17.9755 25.4583 17.9897C25.3262 18.0454 25.256 18.113 25.1965 18.1532C25.1965 18.1532 25.1084 18.2125 24.8764 18.2516C24.4586 18.3215 22.708 16.9446 22.239 16.6946C21.8689 16.4967 21.8939 16.505 21.7785 16.4292C21.7785 16.4292 21.619 16.3261 21.4357 16.2194C20.029 15.4066 19.3542 15.1589 19.2673 14.5961C19.2661 14.5866 19.2649 14.5297 19.2614 14.4148L19.2637 14.4136Z" fill="#585858"/>
<path d="M19.2661 14.4894C19.2507 9.65961 19.234 4.8298 19.2185 0C18.6711 0.0485824 18.2557 0.155227 18.0653 0.244097C17.9154 0.314008 17.7499 0.412358 17.7499 0.412358C17.6428 0.47516 17.5678 0.527297 17.5607 0.532037C17.2965 0.708592 2.40333 9.23777 0.465809 10.3528C-0.0304709 10.6384 -0.130441 10.777 0.167089 11.0033C0.168279 11.0033 0.169469 11.0045 0.170659 11.0057C0.250398 11.0661 0.356318 11.1325 0.491992 11.2095C2.48306 12.3423 4.47414 13.4727 6.4664 14.6032C8.58719 15.8059 10.6997 16.9967 12.8062 18.1734C12.8812 18.1485 12.9906 18.1118 13.1227 18.0644C14.1117 17.7065 14.783 17.3084 15.3388 16.9837C15.9659 16.6176 16.7288 16.1779 17.7702 15.5926C18.1201 15.3651 18.4235 15.2715 18.6413 15.23C18.8567 15.1885 19.0234 15.1802 19.1483 15.0487C19.29 14.8982 19.2923 14.6683 19.2697 14.4894H19.2661Z" fill="#2B2324"/>
<path d="M19.2698 14.5937L12.8038 18.1746C14.8973 19.3263 16.9907 20.4793 19.0841 21.631L25.2013 18.0964C23.2233 16.9292 21.2466 15.7609 19.2686 14.5937H19.2698Z" fill="#6B6B6B"/>
<path d="M38.2796 11.8932C38.2796 11.8754 38.276 11.8091 38.2653 11.7202C38.226 11.3801 38.1237 11.0875 38.0058 10.8457C36.83 11.5069 35.6506 12.1634 34.4783 12.8305C33.5179 13.3779 32.5646 13.9408 31.6054 14.4906C30.7009 15.0096 30.5069 15.1186 29.2061 15.8604C28.2933 16.3818 26.9865 17.1295 25.381 18.0573C25.3596 18.0596 25.337 18.0608 25.3156 18.0632C25.2001 18.1189 25.0859 18.1734 24.9704 18.2291C23.1186 19.2991 21.2656 20.3691 19.4138 21.4403C19.2721 21.5196 19.1579 21.5872 19.0853 21.6298H19.0829V21.6322C19.0829 23.4499 19.0829 25.2688 19.0805 27.0865C19.0782 27.0865 19.077 27.0865 19.0746 27.0877C19.0734 30.1934 19.0722 33.3003 19.0698 36.406C19.071 37.303 19.0746 38.2 19.0746 39.097C19.0746 40.3282 19.0722 41.5593 19.077 42.7905C19.0793 43.4469 19.4078 43.6555 19.9886 43.3794C20.0683 43.3414 20.1433 43.2952 20.2195 43.2502C25.6441 40.1303 31.0591 36.9949 36.4991 33.9034C37.7357 33.2008 38.276 32.1592 38.2796 30.8321C38.3153 20.3797 38.4271 15.1553 38.2772 11.8897L38.2796 11.8932Z" fill="#2A2323"/>
<path d="M31.5483 29.0949C31.534 29.0854 31.5221 29.0795 31.5161 29.076L31.509 29.0724L25.6929 25.7949L25.6548 25.7735C25.6548 25.7735 25.65 25.7712 25.6476 25.77C25.5262 25.7167 25.4132 25.7546 25.3608 25.7783C25.3406 25.7878 25.3299 25.7949 25.3299 25.7949L19.9446 28.8283C19.9386 28.8319 19.9291 28.8366 19.9184 28.8437C19.9208 28.8437 19.922 28.8413 19.9232 28.8413L19.8994 28.8544C19.8994 28.8544 19.9017 28.8532 19.9029 28.852C19.8875 28.8615 19.8672 28.8722 19.8458 28.884C19.8494 28.8816 19.8518 28.8805 19.8553 28.8793L19.8351 28.8911C19.8351 28.8911 19.8422 28.8864 19.847 28.8852C19.8375 28.8899 19.8268 28.897 19.816 28.903C19.8172 28.903 19.8184 28.9018 19.8196 28.9006L19.8101 28.9053C19.8101 28.9053 19.8137 28.903 19.816 28.9018C19.8089 28.9053 19.8018 28.9101 19.7934 28.9148L19.7768 28.9243C19.7827 28.9207 19.7887 28.9184 19.7934 28.9148C19.215 29.2407 18.6057 28.9148 18.6045 28.9148L13.4061 26.0129C13.4061 26.0129 13.4037 26.0117 13.4013 26.0105L13.3775 25.9975C13.3656 25.9916 13.3525 25.9833 13.3358 25.9738L13.3013 25.9548C13.3013 25.9548 13.2942 25.9513 13.2906 25.9489L13.2573 25.93C13.2692 25.9371 13.2799 25.943 13.2906 25.9489C12.8646 25.7107 12.8396 25.1941 12.8396 25.1941L12.9098 18.3084C12.9098 18.293 12.9122 18.2504 12.9371 18.2065L12.9205 18.1971L12.9395 18.2042C12.9479 18.1899 12.9586 18.1745 12.974 18.1615C12.9681 18.1663 12.9633 18.171 12.9598 18.1745C12.9693 18.1639 12.9812 18.1532 13.0026 18.1414L12.9133 18.1923L19.0758 14.7015C19.1032 14.6861 19.2127 14.6363 19.3352 14.705C19.3329 14.7039 19.3305 14.7027 19.3281 14.7015L19.3543 14.7157C19.3543 14.7157 19.3507 14.7133 19.3483 14.7122C19.3769 14.7287 19.3805 14.7299 19.3686 14.724L24.8717 17.8617C24.8717 17.8617 24.8753 17.8641 24.88 17.8676L24.9752 17.921L25.0145 17.9435L25.0621 17.9707C25.0621 17.9707 25.0645 17.9707 25.0669 17.9731L25.1145 18.0015L25.1311 18.011C25.1311 18.011 25.1442 18.0181 25.1526 18.0217C25.2168 18.0513 25.3477 18.0987 25.4513 18.0347L25.5191 17.9956L25.5798 17.9613L25.6405 17.9257L25.7821 17.8439C25.7821 17.8439 25.7881 17.8404 25.7905 17.838L30.9889 14.8271C30.9984 14.8212 31.0068 14.8164 31.0163 14.8105L31.1151 14.7536C31.4269 14.5522 31.1603 14.3365 31.0198 14.2465C30.977 14.2192 30.9473 14.2038 30.9473 14.2038L30.8877 14.1695C30.8877 14.1695 30.877 14.1612 30.8723 14.16L30.7961 14.115L19.3888 7.43783C19.3233 7.39991 19.2615 7.38806 19.2055 7.38806C19.1222 7.38806 19.0591 7.4165 19.0306 7.43072C19.021 7.43546 19.0175 7.43901 19.0175 7.43901L6.87705 14.3294C6.87705 14.3294 6.87229 14.3318 6.86991 14.333L6.78422 14.3816C6.68306 14.4491 6.61523 14.532 6.56881 14.615C6.46289 14.8046 6.47122 15.0368 6.47122 15.0368V15.0274V28.9421C6.48074 28.9788 6.54739 29.2774 6.71996 29.3935C6.73186 29.403 6.74495 29.4089 6.75804 29.416L18.8068 36.3408C18.8068 36.3408 18.8068 36.3408 18.8104 36.3432L18.8247 36.3527C18.8247 36.3527 18.833 36.3574 18.8378 36.3598L18.8735 36.3811L18.8866 36.3894C18.8961 36.3965 18.9116 36.4036 18.9294 36.4131C18.9889 36.4415 19.0877 36.4795 19.2008 36.4818C19.2805 36.4842 19.365 36.47 19.4507 36.4238C19.4638 36.4167 19.4792 36.4084 19.4923 36.3989L19.5209 36.3835L19.5875 36.3444C19.5875 36.3444 19.5911 36.342 19.5935 36.3408L31.578 29.3912C31.7768 29.2762 31.6268 29.1494 31.5495 29.0973L31.5483 29.0949ZM12.9479 18.1864C12.9479 18.1864 12.9526 18.1805 12.9562 18.1769C12.9526 18.1805 12.9502 18.1828 12.9479 18.1864ZM19.3043 14.6873C19.2805 14.6742 19.2567 14.66 19.2365 14.6494L19.3043 14.6873ZM13.2299 25.9146L13.1061 25.8458C13.1478 25.8695 13.1906 25.8932 13.2299 25.9146ZM12.8812 25.7202L12.8348 25.6942C12.8348 25.6942 12.8527 25.7036 12.8812 25.7202ZM13.0764 25.8292L13.0014 25.7878C13.0252 25.8008 13.0502 25.815 13.0764 25.8292ZM12.9943 25.783L12.9193 25.7416C12.9419 25.7534 12.9669 25.7676 12.9943 25.783ZM19.2269 29.2336L19.2067 29.2454C19.2067 29.2454 19.2174 29.2395 19.2269 29.2336ZM19.2626 29.2134C19.2912 29.1968 19.3293 29.1755 19.3721 29.1518L19.2626 29.2134ZM19.4828 29.089C19.5102 29.0736 19.5376 29.0582 19.5661 29.0416L19.4828 29.089ZM19.7173 28.9563L19.6506 28.993C19.6732 28.98 19.6958 28.9681 19.7173 28.9563Z" fill="url(#paint0_linear_786_700)"/>
<path d="M19.334 14.7039C19.334 14.7039 19.344 14.7089 19.3478 14.7114C19.344 14.7089 19.339 14.7064 19.334 14.7039Z" fill="url(#paint1_linear_786_700)"/>
<path d="M19.9028 28.8521C19.9028 28.8521 19.9136 28.8461 19.9172 28.8438C19.9124 28.8461 19.9076 28.8485 19.9028 28.8521Z" fill="url(#paint2_linear_786_700)"/>
<defs>
<linearGradient id="paint0_linear_786_700" x1="6.46884" y1="21.932" x2="31.6756" y2="21.932" gradientUnits="userSpaceOnUse">
<stop stop-color="#FBB040"/>
<stop offset="1" stop-color="#FF5627"/>
</linearGradient>
<linearGradient id="paint1_linear_786_700" x1="19.334" y1="14.7076" x2="19.3478" y2="14.7076" gradientUnits="userSpaceOnUse">
<stop stop-color="#FBB040"/>
<stop offset="1" stop-color="#FF5627"/>
</linearGradient>
<linearGradient id="paint2_linear_786_700" x1="19.9028" y1="28.8485" x2="19.9172" y2="28.8485" gradientUnits="userSpaceOnUse">
<stop stop-color="#FBB040"/>
<stop offset="1" stop-color="#FF5627"/>
</linearGradient>
</defs>
</svg>
