<svg width="299" height="309" viewBox="0 0 299 309" fill="none" xmlns="http://www.w3.org/2000/svg">
<path d="M316.725 304.788C316.641 304.537 316.515 304.369 316.473 304.244L316.431 304.118L272.495 210.843L272.202 210.215C272.202 210.215 272.16 210.131 272.16 210.089C271.113 208.33 269.354 207.785 268.474 207.618C268.139 207.576 267.93 207.534 267.93 207.534L172.938 197.943C172.812 197.943 172.686 197.901 172.477 197.901C172.519 197.943 172.561 197.901 172.561 197.901L172.142 197.859C172.142 197.859 172.184 197.859 172.226 197.859C171.932 197.859 171.597 197.775 171.22 197.775C171.304 197.775 171.346 197.775 171.388 197.817L171.011 197.775C171.011 197.775 171.137 197.775 171.22 197.817C171.053 197.775 170.843 197.775 170.676 197.775C170.676 197.775 170.718 197.775 170.76 197.775L170.592 197.733C170.592 197.733 170.676 197.733 170.718 197.733C170.592 197.733 170.467 197.691 170.299 197.691L170.006 197.649C170.131 197.649 170.215 197.691 170.299 197.691C160.079 196.644 155.346 187.095 155.305 187.095L115.808 104.039C115.808 104.039 115.808 103.997 115.766 103.955L115.599 103.579C115.515 103.411 115.431 103.16 115.306 102.908L115.054 102.364C115.054 102.364 115.012 102.238 114.971 102.196L114.719 101.652C114.803 101.861 114.887 102.029 114.971 102.196C111.745 95.3693 116.06 88.626 116.06 88.626L178.466 2.17796C178.592 1.96854 179.011 1.46593 179.723 1.13086L179.597 0.879555L179.765 1.13086C180.016 1.00521 180.267 0.92144 180.602 0.879555C180.477 0.879555 180.393 0.92144 180.309 0.92144C180.519 0.879562 180.77 0.837677 181.147 0.879555L179.555 0.712021L288.453 11.4343C288.956 11.4761 290.757 11.8112 291.678 13.7798C291.678 13.7379 291.636 13.696 291.636 13.6541L291.846 14.0729C291.846 14.0729 291.804 14.0311 291.804 13.9892C292.013 14.4499 292.055 14.4918 291.971 14.3242L333.227 103.076C333.227 103.076 333.269 103.118 333.269 103.243L333.981 104.751L334.274 105.38L334.609 106.133C334.609 106.133 334.651 106.175 334.651 106.217L334.986 107.013L335.111 107.264C335.111 107.264 335.195 107.474 335.279 107.599C335.824 108.563 337.038 110.322 338.923 110.406L340.138 110.531L341.227 110.657L342.315 110.741L344.829 110.95C344.829 110.95 344.954 110.95 344.996 110.95L437.434 119.159C437.601 119.159 437.769 119.201 437.936 119.201L439.695 119.369C445.433 119.578 444.009 114.51 443.046 112.081C442.753 111.369 442.501 110.908 442.501 110.908L442.041 109.945C442.041 109.945 441.957 109.735 441.915 109.694L441.371 108.437L357.394 -77.7781C356.891 -78.8252 356.221 -79.5372 355.509 -80.0398C354.462 -80.7938 353.415 -81.0032 352.912 -81.0451C352.745 -81.0869 352.661 -81.0451 352.661 -81.0451L138.007 -101.987C138.007 -101.987 137.923 -101.987 137.881 -101.987L136.373 -102.154C134.488 -102.196 132.897 -101.736 131.557 -101.107C128.541 -99.6414 126.572 -96.6258 126.572 -96.6258L126.656 -96.7515L2.13573 79.3697C1.92631 79.9142 0.0834264 84.312 1.21429 87.2857C1.29806 87.4951 1.38182 87.7046 1.50747 87.914L91.3062 282.925C91.3062 282.925 91.3062 282.925 91.3481 282.967L91.4319 283.218C91.4319 283.218 91.4738 283.344 91.5156 283.427L91.7669 284.014L91.8507 284.223C91.8926 284.391 92.0182 284.642 92.1858 284.893C92.6884 285.773 93.5679 287.155 94.992 288.202C95.9553 288.956 97.17 289.5 98.6778 289.71C98.8872 289.752 99.1804 289.752 99.4317 289.752L99.9343 289.794L101.107 289.877C101.107 289.877 101.191 289.877 101.233 289.877L314.463 308.683C317.981 309.06 317.227 306.128 316.725 304.788ZM180.058 0.963326C180.058 0.963326 180.184 0.92144 180.267 0.92144C180.142 0.92144 180.1 0.963326 180.058 0.963326ZM291.469 13.319C291.301 12.9421 291.134 12.5651 290.966 12.23L291.469 13.319ZM114.384 101.317L113.421 99.3483C113.756 100.018 114.091 100.689 114.384 101.317ZM111.745 95.7463L111.41 94.9923C111.41 94.9923 111.536 95.2855 111.745 95.7463ZM113.211 98.8875L112.625 97.7148C112.834 98.0499 113.044 98.4687 113.211 98.8875ZM112.625 97.5473L112.039 96.3745C112.206 96.7096 112.416 97.1284 112.625 97.5473ZM160.247 196.77L159.87 196.728C159.87 196.728 160.079 196.77 160.247 196.77ZM160.875 196.854C161.378 196.896 162.048 196.979 162.802 197.063L160.875 196.854ZM164.77 197.231C165.273 197.272 165.734 197.314 166.236 197.356L164.77 197.231ZM168.917 197.649L167.744 197.524C168.121 197.524 168.54 197.608 168.917 197.649Z" fill="url(#paint0_linear_828_88)"/>
<path d="M291.678 13.7798C291.678 13.7798 291.762 13.9054 291.762 13.9892C291.762 13.9054 291.72 13.8636 291.678 13.7798Z" fill="url(#paint1_linear_828_88)"/>
<path d="M172.184 197.984C172.184 197.984 172.351 197.984 172.435 198.026C172.351 197.984 172.268 197.984 172.184 197.984Z" fill="url(#paint2_linear_828_88)"/>
<mask id="mask0_828_88" style="mask-type:luminance" maskUnits="userSpaceOnUse" x="122" y="-7" width="215" height="220">
<path d="M223.646 -6.30275L122.247 124.992L235.444 212.413L336.843 81.119L223.646 -6.30275Z" fill="white"/>
</mask>
<g mask="url(#mask0_828_88)">
<path d="M260.642 178.676C260.6 178.592 260.559 178.509 260.559 178.467V178.425L245.857 143.494L245.774 143.284V143.242C245.397 142.572 244.768 142.363 244.475 142.279C244.35 142.237 244.266 142.237 244.266 142.237L209.502 137.253C209.46 137.253 209.419 137.253 209.335 137.211H209.377L209.209 137.169C209.209 137.169 209.209 137.169 209.251 137.169C209.167 137.169 209 137.127 208.874 137.127C208.916 137.127 208.916 137.127 208.916 137.127H208.79C208.79 137.127 208.832 137.127 208.874 137.127C208.832 137.127 208.748 137.127 208.665 137.086C208.665 137.086 208.665 137.086 208.707 137.086C208.665 137.086 208.623 137.086 208.539 137.086H208.413C208.455 137.086 208.497 137.086 208.539 137.086C204.811 136.541 203.22 132.981 203.22 132.981L189.984 101.861C189.984 101.861 189.984 101.861 189.984 101.819L189.943 101.694C189.901 101.61 189.859 101.526 189.859 101.442L189.775 101.233C189.775 101.233 189.775 101.191 189.733 101.149L189.649 100.94C189.691 101.024 189.691 101.065 189.733 101.149C188.644 98.5943 190.32 96.1651 190.32 96.1651L214.654 65.3386C214.696 65.2549 214.863 65.0873 215.115 64.9617C215.198 64.9198 215.324 64.8779 215.408 64.8779C215.366 64.8779 215.324 64.8779 215.282 64.8779C215.366 64.8779 215.45 64.836 215.575 64.8779L214.989 64.7942L254.821 70.4066C254.988 70.4485 255.658 70.5741 255.993 71.328V71.2861L256.077 71.4537V71.4118C256.161 71.5793 256.161 71.6212 256.119 71.5374L269.899 104.793V104.835L270.15 105.421L270.234 105.673L270.359 105.966C270.359 105.966 270.359 105.966 270.359 106.008L270.485 106.301L270.527 106.385C270.527 106.385 270.569 106.468 270.569 106.51C270.736 106.887 271.197 107.516 271.867 107.599L272.328 107.641L272.705 107.683L273.082 107.725L274.003 107.851H274.045L307.887 112.29C307.971 112.29 308.013 112.29 308.055 112.29L308.683 112.374C310.777 112.542 310.358 110.657 310.023 109.735C309.94 109.484 309.856 109.275 309.856 109.275L309.688 108.898C309.688 108.898 309.688 108.814 309.646 108.814L309.479 108.353L281.5 38.7425C281.333 38.3236 281.082 38.0723 280.83 37.8629C280.453 37.5697 280.076 37.486 279.909 37.4441C279.867 37.4441 279.825 37.4441 279.825 37.4441L201.293 26.4286H201.251L200.707 26.3449C200.037 26.303 199.408 26.4286 198.906 26.6381C197.775 27.1407 197.021 28.1878 197.021 28.1878L197.063 28.1459L148.561 90.9715C148.478 91.1809 147.724 92.7306 148.101 93.8615C148.101 93.9452 148.143 94.029 148.184 94.1128L178.173 167.158C178.173 167.158 178.173 167.158 178.173 167.2L178.215 167.284C178.215 167.284 178.215 167.326 178.257 167.367L178.341 167.577L178.383 167.661C178.383 167.744 178.466 167.828 178.508 167.912C178.676 168.247 178.969 168.75 179.472 169.168C179.807 169.462 180.267 169.671 180.812 169.755C180.896 169.755 180.979 169.797 181.105 169.797L181.273 169.839L181.691 169.88H181.733L259.721 180.1C261.019 180.268 260.81 179.179 260.642 178.676ZM215.115 64.9198C215.115 64.9198 215.157 64.9198 215.198 64.9198C215.157 64.9198 215.157 64.9198 215.115 64.9198ZM255.868 71.2024C255.826 71.0767 255.742 70.9092 255.7 70.7835L255.868 71.2024ZM189.44 100.772L189.105 100.018C189.231 100.312 189.356 100.563 189.44 100.772ZM188.56 98.72L188.435 98.4268C188.435 98.4268 188.477 98.5106 188.56 98.72ZM189.063 99.8508L188.854 99.3901C188.937 99.5577 188.979 99.7252 189.063 99.8508ZM188.854 99.3901L188.644 98.9294C188.728 99.0551 188.77 99.2226 188.854 99.3901ZM204.811 136.583H204.686C204.686 136.541 204.769 136.541 204.811 136.583ZM205.063 136.583C205.23 136.625 205.481 136.625 205.775 136.667L205.063 136.583ZM206.487 136.792C206.654 136.834 206.822 136.834 207.031 136.876L206.487 136.792ZM207.994 137.002L207.576 136.918C207.701 136.96 207.869 137.002 207.994 137.002Z" fill="#B8B5B5"/>
<path d="M255.952 71.3699C255.952 71.3699 255.994 71.4123 255.994 71.4547C255.952 71.4123 255.952 71.4123 255.952 71.3699Z" fill="#B8B5B5"/>
<mask id="mask1_828_88" style="mask-type:luminance" maskUnits="userSpaceOnUse" x="205" y="77" width="49" height="52">
<path d="M220.998 77.493L205.177 114.368L237.548 128.256L253.369 91.3819L220.998 77.493Z" fill="white"/>
</mask>
<g mask="url(#mask1_828_88)">
<path d="M232.036 96.6677C232.413 95.7463 232.664 95.1599 232.664 95.1599C232.79 94.8248 233.041 94.2385 233.67 92.7725C233.67 92.7725 234.298 91.3066 234.591 90.6365C234.591 90.5946 234.633 90.5527 234.675 90.4271C234.758 90.2595 234.842 90.0501 234.968 89.7569C235.01 89.6732 235.01 89.6313 235.052 89.5475C235.219 89.2124 235.806 87.7884 237.23 84.4377C237.439 84.5215 237.648 84.6471 237.9 84.8565C237.9 84.8565 237.984 84.9403 238.067 85.0241C242.507 90.092 248.664 99.2645 248.664 99.2645C248.664 99.3064 248.706 99.3483 248.79 99.4321C248.999 99.7671 249.083 100.102 249.166 100.395C248.79 100.437 248.245 100.479 247.575 100.563C246.193 100.73 245.481 100.772 245.439 100.814C244.14 101.066 243.512 101.066 242.423 101.191C242.339 101.191 241.25 101.317 240.58 101.401C239.994 101.484 239.91 101.484 239.617 101.484C239.408 101.526 239.24 101.526 239.198 101.526C238.402 101.652 238.109 101.652 237.732 101.694C237.523 101.736 237.607 101.736 237.355 101.736C236.895 101.819 236.685 101.819 235.973 101.903C235.889 101.903 235.806 101.903 235.764 101.945C235.722 101.861 235.638 101.778 235.554 101.652C235.219 101.191 235.094 101.024 234.633 100.354C234.633 100.354 234.633 100.354 233.879 99.3483L233.67 99.0551C233.628 98.9713 233.544 98.8876 233.46 98.7619C233.041 98.2174 232.832 97.9242 232.748 97.7986C232.497 97.5054 232.329 97.1703 232.078 96.8772C232.078 96.8772 232.036 96.8353 231.994 96.7515C231.952 96.7515 232.036 96.7096 232.036 96.6677Z" fill="#585858" fill-opacity="0.3"/>
<path d="M231.994 96.7514C233.753 92.6468 235.47 88.5422 237.229 84.4376C236.769 84.2701 236.35 84.2282 236.182 84.2282C236.015 84.2282 235.847 84.2701 235.847 84.2701C235.721 84.2701 235.638 84.312 235.638 84.312C235.344 84.3539 219.68 86.1967 217.628 86.448C217.125 86.4899 216.958 86.5737 217.125 86.9088C217.167 86.9925 217.251 87.0763 217.335 87.202C218.591 88.8773 219.889 90.5527 221.146 92.228C222.486 94.029 223.868 95.7881 225.209 97.5472C225.334 97.5472 225.502 97.5054 225.627 97.5054C226.34 97.4216 227.093 97.3378 227.805 97.2959C227.847 97.2959 230.193 97.0446 230.193 97.0446C230.235 97.0446 230.402 97.0028 230.57 97.0028C230.737 97.0028 230.905 96.9609 230.905 96.9609C231.072 96.9609 231.114 96.9609 231.24 96.919C231.491 96.8771 231.449 96.8771 231.491 96.8771C231.617 96.8771 231.743 96.8352 231.91 96.8352H231.952C231.994 96.7933 231.994 96.7933 231.994 96.7514Z" fill="#2B2324" fill-opacity="0.3"/>
<path d="M231.952 96.8353L225.209 97.5473C226.549 99.2645 227.889 101.024 229.271 102.741L235.722 101.945C234.465 100.228 233.209 98.5525 231.952 96.8353Z" fill="#6B6B6B" fill-opacity="0.3"/>
<path d="M248.999 101.442C248.999 101.442 249.04 101.359 249.04 101.275C249.124 100.982 249.166 100.689 249.124 100.437C247.91 100.563 246.653 100.689 245.438 100.856C244.433 100.982 243.428 101.107 242.423 101.233C242.171 101.275 242.004 101.275 241.753 101.317C240.412 101.484 239.198 101.61 237.732 101.778C237.271 101.819 236.643 101.903 235.847 101.987C235.805 101.987 235.763 101.987 235.721 101.987L235.47 102.029C233.502 102.28 231.575 102.531 229.606 102.741C229.439 102.741 229.355 102.783 229.271 102.783C228.601 104.332 227.931 105.882 227.303 107.39C226.172 110.029 225.041 112.667 223.91 115.306C223.575 116.06 223.282 116.814 222.947 117.568C222.486 118.615 222.067 119.662 221.607 120.709C221.355 121.253 221.565 121.547 222.151 121.547C222.235 121.547 222.319 121.547 222.402 121.505C228.099 120.835 233.837 120.123 239.533 119.494C240.831 119.327 241.669 118.657 242.171 117.526C245.941 108.646 247.951 104.249 248.999 101.442Z" fill="#2A2323" fill-opacity="0.3"/>
</g>
</g>
<defs>
<linearGradient id="paint0_linear_828_88" x1="64.8546" y1="-9.34828" x2="382.43" y2="215.238" gradientUnits="userSpaceOnUse">
<stop stop-color="#FBB040"/>
<stop offset="1" stop-color="#FF5627"/>
</linearGradient>
<linearGradient id="paint1_linear_828_88" x1="291.633" y1="13.8206" x2="291.798" y2="13.9371" gradientUnits="userSpaceOnUse">
<stop stop-color="#FBB040"/>
<stop offset="1" stop-color="#FF5627"/>
</linearGradient>
<linearGradient id="paint2_linear_828_88" x1="172.206" y1="197.931" x2="172.385" y2="198.058" gradientUnits="userSpaceOnUse">
<stop stop-color="#FBB040"/>
<stop offset="1" stop-color="#FF5627"/>
</linearGradient>
</defs>
</svg>
