<svg width="917" height="753" viewBox="0 0 917 753" fill="none" xmlns="http://www.w3.org/2000/svg">
<path d="M769.528 742.451C769.324 741.839 769.018 741.43 768.916 741.124L768.814 740.818L661.788 513.604L661.073 512.074C661.073 512.074 660.971 511.87 660.971 511.768C658.421 507.482 654.136 506.156 651.993 505.748C651.177 505.646 650.667 505.544 650.667 505.544L419.269 482.18C418.963 482.18 418.657 482.078 418.147 482.078C418.249 482.18 418.351 482.078 418.351 482.078L417.331 481.976C417.331 481.976 417.433 481.976 417.535 481.976C416.821 481.976 416.004 481.772 415.086 481.772C415.29 481.772 415.392 481.772 415.494 481.874L414.576 481.772C414.576 481.772 414.882 481.772 415.086 481.874C414.678 481.772 414.168 481.772 413.76 481.772C413.76 481.772 413.862 481.772 413.964 481.772L413.556 481.67C413.556 481.67 413.76 481.67 413.862 481.67C413.556 481.67 413.25 481.568 412.842 481.568L412.127 481.466C412.434 481.466 412.638 481.568 412.842 481.568C387.947 479.017 376.418 455.755 376.316 455.755L280.104 253.435C280.104 253.435 280.104 253.333 280.002 253.231L279.594 252.313C279.39 251.905 279.186 251.293 278.88 250.68L278.268 249.354C278.268 249.354 278.166 249.048 278.064 248.946L277.452 247.62C277.656 248.13 277.86 248.538 278.064 248.946C270.208 232.316 280.717 215.889 280.717 215.889L432.737 5.3054C433.043 4.79527 434.063 3.57095 435.798 2.75473L435.492 2.14256L435.9 2.75473C436.512 2.44865 437.124 2.2446 437.94 2.14256C437.634 2.14256 437.43 2.2446 437.226 2.2446C437.736 2.14256 438.348 2.04054 439.267 2.14256L435.39 1.73447L700.66 27.8534C701.884 27.9554 706.271 28.7716 708.516 33.5669C708.516 33.4649 708.414 33.3628 708.414 33.2608L708.924 34.2811C708.924 34.2811 708.822 34.179 708.822 34.077C709.332 35.1993 709.434 35.3013 709.23 34.8932L809.727 251.089C809.727 251.089 809.829 251.191 809.829 251.497L811.563 255.17L812.277 256.7L813.094 258.536C813.094 258.536 813.196 258.639 813.196 258.741L814.012 260.679L814.318 261.291C814.318 261.291 814.522 261.801 814.726 262.107C816.052 264.454 819.011 268.739 823.602 268.943L826.561 269.249L829.214 269.555L831.867 269.759L837.988 270.27C837.988 270.27 838.294 270.27 838.396 270.27L1063.57 290.267C1063.98 290.267 1064.39 290.369 1064.79 290.369L1069.08 290.777C1083.06 291.287 1079.59 278.942 1077.24 273.024C1076.53 271.29 1075.92 270.168 1075.92 270.168L1074.79 267.821C1074.79 267.821 1074.59 267.311 1074.49 267.209L1073.16 264.148L868.596 -189.464C867.372 -192.015 865.74 -193.749 864.005 -194.974C861.454 -196.81 858.904 -197.32 857.679 -197.422C857.271 -197.524 857.067 -197.422 857.067 -197.422L334.179 -248.436C334.179 -248.436 333.975 -248.436 333.873 -248.436L330.2 -248.844C325.609 -248.946 321.732 -247.824 318.467 -246.293C311.121 -242.722 306.325 -235.376 306.325 -235.376L306.529 -235.682L3.20314 193.341C2.69301 194.668 -1.79618 205.38 0.958547 212.624C1.1626 213.134 1.36665 213.645 1.67274 214.155L220.419 689.193C220.419 689.193 220.419 689.193 220.521 689.295L220.725 689.907C220.725 689.907 220.827 690.213 220.929 690.417L221.541 691.845L221.745 692.355C221.847 692.763 222.153 693.376 222.561 693.988C223.786 696.13 225.928 699.497 229.397 702.048C231.744 703.884 234.702 705.211 238.375 705.721C238.886 705.823 239.6 705.823 240.212 705.823L241.436 705.925L244.293 706.129C244.293 706.129 244.497 706.129 244.599 706.129L764.019 751.939C772.589 752.857 770.752 745.716 769.528 742.451ZM436.614 2.34662C436.614 2.34662 436.92 2.2446 437.124 2.2446C436.818 2.2446 436.716 2.34662 436.614 2.34662ZM708.006 32.4446C707.598 31.5263 707.19 30.6081 706.781 29.7919L708.006 32.4446ZM276.636 246.803L274.289 242.008C275.105 243.641 275.921 245.273 276.636 246.803ZM270.208 233.234L269.392 231.397C269.392 231.397 269.698 232.111 270.208 233.234ZM273.779 240.886L272.35 238.029C272.861 238.845 273.371 239.866 273.779 240.886ZM272.35 237.621L270.922 234.764C271.33 235.58 271.84 236.601 272.35 237.621ZM388.355 479.323L387.437 479.221C387.437 479.221 387.947 479.323 388.355 479.323ZM389.886 479.527C391.11 479.629 392.742 479.833 394.579 480.037L389.886 479.527ZM399.374 480.445C400.598 480.547 401.721 480.649 402.945 480.751L399.374 480.445ZM409.475 481.466L406.618 481.159C407.536 481.159 408.557 481.363 409.475 481.466Z" fill="url(#paint0_linear_828_27)"/>
<path d="M708.516 33.5669C708.516 33.5669 708.72 33.873 708.72 34.0771C708.72 33.873 708.618 33.771 708.516 33.5669Z" fill="url(#paint1_linear_828_27)"/>
<path d="M417.433 482.282C417.433 482.282 417.841 482.282 418.045 482.384C417.841 482.282 417.637 482.282 417.433 482.282Z" fill="url(#paint2_linear_828_27)"/>
<mask id="mask0_828_27" style="mask-type:luminance" maskUnits="userSpaceOnUse" x="295" y="-16" width="524" height="534">
<path d="M542.794 -15.3532L295.79 304.474L571.531 517.43L818.535 197.602L542.794 -15.3532Z" fill="white"/>
</mask>
<g mask="url(#mask0_828_27)">
<path d="M632.914 435.247C632.812 435.043 632.71 434.839 632.71 434.737V434.635L596.899 349.545L596.695 349.034V348.932C595.776 347.3 594.246 346.79 593.532 346.586C593.226 346.484 593.022 346.484 593.022 346.484L508.339 334.343C508.237 334.343 508.135 334.343 507.931 334.241H508.033L507.625 334.139C507.625 334.139 507.625 334.139 507.727 334.139C507.523 334.139 507.115 334.036 506.809 334.036C506.911 334.036 506.911 334.036 506.911 334.036H506.605C506.605 334.036 506.707 334.036 506.809 334.036C506.707 334.036 506.503 334.036 506.299 333.934C506.299 333.934 506.299 333.934 506.401 333.934C506.299 333.934 506.197 333.934 505.993 333.934H505.687C505.789 333.934 505.891 333.934 505.993 333.934C496.912 332.608 493.035 323.936 493.035 323.936L460.795 248.13C460.795 248.13 460.795 248.13 460.795 248.028L460.693 247.722C460.591 247.518 460.489 247.314 460.489 247.109L460.285 246.599C460.285 246.599 460.285 246.497 460.183 246.395L459.979 245.885C460.081 246.089 460.081 246.191 460.183 246.395C457.53 240.172 461.611 234.254 461.611 234.254L520.889 159.162C520.991 158.958 521.399 158.55 522.011 158.244C522.215 158.142 522.521 158.04 522.725 158.04C522.623 158.04 522.521 158.04 522.419 158.04C522.623 158.04 522.827 157.938 523.133 158.04L521.705 157.836L618.733 171.507C619.141 171.609 620.773 171.916 621.589 173.752V173.65L621.793 174.058V173.956C621.997 174.364 621.997 174.466 621.895 174.262L655.462 255.272V255.374L656.074 256.802L656.279 257.414L656.585 258.128C656.585 258.128 656.585 258.128 656.585 258.23L656.891 258.945L656.993 259.149C656.993 259.149 657.095 259.353 657.095 259.455C657.503 260.373 658.625 261.903 660.258 262.107L661.38 262.209L662.298 262.311L663.216 262.414L665.461 262.72H665.563L748.001 273.534C748.205 273.534 748.307 273.534 748.409 273.534L749.939 273.738C755.041 274.147 754.02 269.555 753.204 267.311C753 266.699 752.796 266.189 752.796 266.189L752.388 265.27C752.388 265.27 752.388 265.066 752.286 265.066L751.878 263.944L683.724 94.375C683.316 93.3547 682.703 92.7426 682.091 92.2324C681.173 91.5182 680.255 91.3142 679.847 91.2122C679.745 91.2122 679.643 91.2122 679.643 91.2122L488.342 64.3791H488.24L486.914 64.175C485.281 64.073 483.751 64.3791 482.526 64.8892C479.772 66.1135 477.935 68.6642 477.935 68.6642L478.037 68.5622L359.89 221.603C359.686 222.113 357.849 225.888 358.768 228.643C358.768 228.847 358.87 229.051 358.972 229.255L432.023 407.19C432.023 407.19 432.023 407.19 432.023 407.292L432.125 407.496C432.125 407.496 432.125 407.598 432.227 407.7L432.431 408.21L432.533 408.414C432.533 408.618 432.737 408.822 432.839 409.026C433.247 409.843 433.962 411.067 435.186 412.087C436.002 412.801 437.124 413.311 438.451 413.516C438.655 413.516 438.859 413.618 439.165 413.618L439.573 413.72L440.593 413.822H440.695L630.67 438.716C633.833 439.124 633.322 436.472 632.914 435.247ZM522.011 158.142C522.011 158.142 522.113 158.142 522.215 158.142C522.113 158.142 522.113 158.142 522.011 158.142ZM621.283 173.446C621.181 173.14 620.977 172.732 620.875 172.426L621.283 173.446ZM459.468 245.477L458.652 243.641C458.958 244.355 459.264 244.967 459.468 245.477ZM457.326 240.478L457.02 239.764C457.02 239.764 457.122 239.968 457.326 240.478ZM458.55 243.232L458.04 242.11C458.244 242.518 458.346 242.926 458.55 243.232ZM458.04 242.11L457.53 240.988C457.734 241.294 457.836 241.702 458.04 242.11ZM496.912 332.71H496.606C496.606 332.608 496.81 332.608 496.912 332.71ZM497.524 332.71C497.933 332.812 498.545 332.812 499.259 332.914L497.524 332.71ZM500.993 333.22C501.401 333.322 501.81 333.322 502.32 333.424L500.993 333.22ZM504.666 333.73L503.646 333.526C503.952 333.628 504.36 333.73 504.666 333.73Z" fill="#B8B5B5"/>
<path d="M621.487 173.854C621.487 173.854 621.589 173.956 621.589 174.058C621.487 173.956 621.487 173.956 621.487 173.854Z" fill="#B8B5B5"/>
<mask id="mask1_828_27" style="mask-type:luminance" maskUnits="userSpaceOnUse" x="497" y="188" width="119" height="125">
<path d="M536.342 188.77L497.803 278.594L576.657 312.427L615.197 222.602L536.342 188.77Z" fill="white"/>
</mask>
<g mask="url(#mask1_828_27)">
<path d="M563.23 235.478C564.148 233.234 564.76 231.805 564.76 231.805C565.066 230.989 565.678 229.561 567.209 225.99C567.209 225.99 568.739 222.419 569.453 220.787C569.453 220.684 569.555 220.582 569.657 220.276C569.861 219.868 570.066 219.358 570.372 218.644C570.474 218.44 570.474 218.338 570.576 218.134C570.984 217.318 572.412 213.849 575.881 205.687C576.391 205.891 576.901 206.197 577.513 206.707C577.513 206.707 577.718 206.911 577.922 207.115C588.736 219.46 603.734 241.804 603.734 241.804C603.734 241.906 603.836 242.008 604.041 242.212C604.551 243.028 604.755 243.845 604.959 244.559C604.041 244.661 602.714 244.763 601.082 244.967C597.715 245.375 595.98 245.477 595.878 245.579C592.716 246.191 591.185 246.191 588.532 246.497C588.328 246.497 585.676 246.803 584.043 247.007C582.615 247.212 582.411 247.212 581.697 247.212C581.186 247.314 580.778 247.314 580.676 247.314C578.738 247.62 578.024 247.62 577.105 247.722C576.595 247.824 576.799 247.824 576.187 247.824C575.065 248.028 574.555 248.028 572.82 248.232C572.616 248.232 572.412 248.232 572.31 248.334C572.208 248.13 572.004 247.926 571.8 247.62C570.984 246.497 570.678 246.089 569.555 244.457C569.555 244.457 569.555 244.457 567.719 242.008L567.209 241.294C567.107 241.09 566.903 240.886 566.699 240.58C565.678 239.253 565.168 238.539 564.964 238.233C564.352 237.519 563.944 236.703 563.332 235.989C563.332 235.989 563.23 235.887 563.128 235.682C563.026 235.682 563.23 235.58 563.23 235.478Z" fill="#585858" fill-opacity="0.3"/>
<path d="M563.128 235.682C567.413 225.684 571.596 215.685 575.881 205.687C574.759 205.278 573.739 205.176 573.33 205.176C572.922 205.176 572.514 205.278 572.514 205.278C572.208 205.278 572.004 205.38 572.004 205.38C571.29 205.482 533.132 209.972 528.132 210.584C526.908 210.686 526.5 210.89 526.908 211.706C527.01 211.91 527.214 212.114 527.418 212.42C530.479 216.501 533.642 220.582 536.703 224.664C539.968 229.051 543.335 233.336 546.599 237.621C546.905 237.621 547.314 237.519 547.62 237.519C549.354 237.315 551.191 237.111 552.925 237.009C553.027 237.009 558.741 236.397 558.741 236.397C558.843 236.397 559.251 236.295 559.659 236.295C560.067 236.295 560.475 236.193 560.475 236.193C560.883 236.193 560.985 236.193 561.291 236.091C561.903 235.989 561.801 235.989 561.903 235.989C562.21 235.989 562.516 235.887 562.924 235.887H563.026C563.128 235.784 563.128 235.784 563.128 235.682Z" fill="#2B2324" fill-opacity="0.3"/>
<path d="M563.026 235.886L546.599 237.621C549.864 241.804 553.129 246.089 556.496 250.272L572.208 248.334C569.147 244.151 566.087 240.07 563.026 235.886Z" fill="#6B6B6B" fill-opacity="0.3"/>
<path d="M604.551 247.11C604.551 247.11 604.653 246.905 604.653 246.701C604.857 245.987 604.959 245.273 604.857 244.661C601.898 244.967 598.837 245.273 595.878 245.681C593.43 245.987 590.981 246.293 588.532 246.599C587.92 246.701 587.512 246.701 586.9 246.803C583.635 247.212 580.676 247.518 577.105 247.926C575.983 248.028 574.453 248.232 572.514 248.436C572.412 248.436 572.31 248.436 572.208 248.436L571.596 248.538C566.801 249.15 562.108 249.762 557.312 250.272C556.904 250.272 556.7 250.374 556.496 250.374C554.864 254.149 553.231 257.924 551.701 261.597C548.946 268.025 546.191 274.453 543.437 280.88C542.62 282.717 541.906 284.553 541.09 286.39C539.968 288.941 538.947 291.491 537.825 294.042C537.213 295.368 537.723 296.083 539.151 296.083C539.355 296.083 539.56 296.083 539.764 295.98C553.639 294.348 567.617 292.614 581.493 291.083C584.655 290.675 586.696 289.043 587.92 286.288C597.103 264.658 602 253.945 604.551 247.11Z" fill="#2A2323" fill-opacity="0.3"/>
</g>
</g>
<defs>
<linearGradient id="paint0_linear_828_27" x1="155.984" y1="-22.772" x2="929.585" y2="524.312" gradientUnits="userSpaceOnUse">
<stop stop-color="#FBB040"/>
<stop offset="1" stop-color="#FF5627"/>
</linearGradient>
<linearGradient id="paint1_linear_828_27" x1="708.406" y1="33.6664" x2="708.807" y2="33.95" gradientUnits="userSpaceOnUse">
<stop stop-color="#FBB040"/>
<stop offset="1" stop-color="#FF5627"/>
</linearGradient>
<linearGradient id="paint2_linear_828_27" x1="417.486" y1="482.152" x2="417.923" y2="482.462" gradientUnits="userSpaceOnUse">
<stop stop-color="#FBB040"/>
<stop offset="1" stop-color="#FF5627"/>
</linearGradient>
</defs>
</svg>
