<svg width="485" height="484" viewBox="0 0 485 484" fill="none" xmlns="http://www.w3.org/2000/svg">
<path d="M414.777 423.875C414.59 423.645 414.423 423.486 414.343 423.397L414.243 423.302L334.859 339.349L334.339 338.801C334.339 338.801 334.272 338.738 334.239 338.706C332.505 337.204 330.443 337.256 329.456 337.382C329.073 337.436 328.86 337.5 328.86 337.5L224.355 360.34C224.239 360.369 224.057 360.399 223.844 360.462C223.883 360.474 223.915 360.441 223.935 360.447L223.475 360.542C223.475 360.542 223.52 360.535 223.546 360.521C223.242 360.599 222.853 360.673 222.438 360.76C222.509 360.739 222.555 360.732 222.62 360.73L222.225 360.824C222.225 360.824 222.367 360.781 222.452 360.786C222.27 360.816 222.057 360.879 221.85 360.923C221.869 360.929 221.895 360.915 221.921 360.902L221.739 360.932C221.739 360.932 221.81 360.911 221.856 360.903C221.719 360.926 221.577 360.968 221.415 361.004L221.091 361.076C221.208 361.048 221.318 361.039 221.415 361.004C210.191 363.458 201.784 354.953 201.765 354.947L130.671 280.366C130.671 280.366 130.638 280.335 130.604 280.303L130.277 279.966C130.111 279.807 129.937 279.603 129.71 279.361L129.236 278.871C129.236 278.871 129.137 278.775 129.09 278.718L128.636 278.234C128.796 278.412 128.943 278.565 129.09 278.718C123.265 272.6 125.491 263.91 125.491 263.91L161.829 150.143C161.908 149.888 162.165 149.193 162.802 148.594L162.575 148.352L162.854 148.567C163.064 148.373 163.32 148.173 163.642 148.036C163.519 148.084 163.416 148.138 163.339 148.179C163.551 148.051 163.802 147.934 164.217 147.847L162.481 148.237L282.168 121.775C282.699 121.659 284.763 121.392 286.437 123.155C286.404 123.123 286.371 123.092 286.338 123.06L286.698 123.429C286.698 123.429 286.651 123.372 286.618 123.34C287.005 123.76 287.058 123.798 286.891 123.639L361.816 203.68C361.816 203.68 361.863 203.738 361.924 203.821L363.225 205.19L363.759 205.763L364.406 206.457C364.406 206.457 364.446 206.469 364.473 206.521L365.115 207.234L365.342 207.476C365.342 207.476 365.522 207.661 365.641 207.762C366.552 208.581 368.474 210.033 370.512 209.5L371.833 209.198L373.011 208.937L374.196 208.657L376.955 208.024C376.955 208.024 377.071 207.995 377.123 207.968L478.424 184.548C478.612 184.499 478.774 184.463 478.961 184.413L480.885 183.974C487.067 182.223 483.763 177.291 481.902 175.083C481.333 174.413 480.92 174.006 480.92 174.006L480.112 173.133C480.112 173.133 479.977 172.941 479.905 172.897L478.876 171.763L324.383 2.91665C323.495 1.95472 322.533 1.44304 321.608 1.15807C320.231 0.733651 319.043 0.88365 318.499 0.973806C318.317 1.00386 318.24 1.04459 318.24 1.04459L82.3886 53.3773C82.3886 53.3773 82.2978 53.3923 82.2524 53.3998L80.588 53.7685C78.5709 54.3726 77.026 55.4017 75.8351 56.54C73.1355 59.1487 72.0867 63.0405 72.0867 63.0405L72.1351 62.8834L1.04725 293.508C1.01694 294.165 0.592963 299.454 2.85187 302.258C3.00015 302.475 3.18625 302.64 3.3663 302.825L167.13 478.98C167.13 478.98 167.13 478.98 167.177 479.038L167.364 479.267C167.364 479.267 167.478 479.389 167.544 479.452L168.025 479.987L168.199 480.192C168.32 480.358 168.54 480.555 168.786 480.803C169.625 481.577 171.064 482.709 172.92 483.324C174.226 483.77 175.695 483.964 177.347 483.635C177.6 483.584 177.898 483.525 178.163 483.435L178.714 483.325L180.015 483.017C180.015 483.017 180.086 482.995 180.132 482.988L413.715 428.859C417.587 427.967 415.756 425.101 414.744 423.843L414.777 423.875ZM163.082 148.315C163.082 148.315 163.191 148.241 163.268 148.2C163.191 148.241 163.14 148.268 163.082 148.315ZM286.017 122.703C285.69 122.366 285.369 122.009 285.089 121.729L286.017 122.703ZM128.262 277.839L126.567 276.069C127.135 276.674 127.722 277.285 128.262 277.839ZM123.491 272.842L122.858 272.173C122.858 272.173 123.104 272.421 123.491 272.842ZM126.16 275.643L125.133 274.574C125.46 274.911 125.8 275.274 126.16 275.643ZM125.039 274.459L124.012 273.389C124.325 273.701 124.666 274.064 125.039 274.459ZM210.424 363.401L210.029 363.494C210.029 363.494 210.236 363.451 210.424 363.401ZM211.117 363.249C211.674 363.12 212.412 362.96 213.241 362.786L211.117 363.249ZM215.391 362.309C215.923 362.193 216.454 362.077 217.011 361.947L215.391 362.309ZM219.944 361.303L218.655 361.573C219.096 361.472 219.53 361.391 219.944 361.303Z" fill="#E6E6E6" fill-opacity="0.55"/>
</svg>
