<svg width="55" height="64" viewBox="0 0 55 64" fill="none" xmlns="http://www.w3.org/2000/svg">
<g clip-path="url(#clip0_784_494)">
<path d="M54.0739 47.3715C54.0435 47.3511 54.0182 47.3384 54.0055 47.3308L53.9903 47.3231L41.6023 40.2896L41.5212 40.2439C41.5212 40.2439 41.511 40.2388 41.506 40.2362C41.2474 40.1218 41.0066 40.2032 40.895 40.254C40.852 40.2744 40.8291 40.2896 40.8291 40.2896L29.3588 46.7993C29.3461 46.8069 29.3258 46.8171 29.303 46.8324C29.3081 46.8324 29.3106 46.8273 29.3131 46.8273L29.2624 46.8553C29.2624 46.8553 29.2675 46.8527 29.27 46.8502C29.2371 46.8705 29.194 46.8934 29.1484 46.9188C29.156 46.9137 29.161 46.9112 29.1686 46.9087L29.1256 46.9341C29.1256 46.9341 29.1408 46.9239 29.1509 46.9214C29.1306 46.9315 29.1078 46.9468 29.085 46.9595C29.0875 46.9595 29.0901 46.957 29.0926 46.9544L29.0723 46.9646C29.0723 46.9646 29.0799 46.9595 29.085 46.957C29.0698 46.9646 29.0546 46.9748 29.0368 46.9849L29.0013 47.0053C29.014 46.9977 29.0267 46.9926 29.0368 46.9849C27.8049 47.6842 26.507 46.9849 26.5045 46.9849L15.4321 40.7575C15.4321 40.7575 15.427 40.755 15.4219 40.7524L15.3712 40.7245C15.3459 40.7117 15.318 40.6939 15.2825 40.6736L15.209 40.6329C15.209 40.6329 15.1938 40.6253 15.1862 40.6202L15.1152 40.5795C15.1406 40.5948 15.1634 40.6075 15.1862 40.6202C14.2787 40.1091 14.2255 39.0004 14.2255 39.0004L14.375 24.2239C14.375 24.1909 14.3801 24.0993 14.4333 24.0052L14.3978 23.9849L14.4384 24.0001C14.4561 23.9696 14.479 23.9366 14.5119 23.9086C14.4992 23.9188 14.4891 23.9289 14.4815 23.9366C14.5018 23.9137 14.5271 23.8908 14.5727 23.8654L14.3826 23.9747L27.5083 16.4835C27.5666 16.4504 27.7998 16.3436 28.0609 16.4911C28.0558 16.4886 28.0508 16.486 28.0457 16.4835L28.1015 16.514C28.1015 16.514 28.0939 16.5089 28.0888 16.5064C28.1496 16.542 28.1572 16.5445 28.1319 16.5318L39.8532 23.2653C39.8532 23.2653 39.8608 23.2703 39.871 23.278L40.0737 23.3924L40.1574 23.4407L40.2588 23.4992C40.2588 23.4992 40.2639 23.4992 40.2689 23.5043L40.3703 23.5653L40.4058 23.5857C40.4058 23.5857 40.4337 23.6009 40.4514 23.6085C40.5883 23.6721 40.8672 23.7738 41.0877 23.6365L41.2322 23.5526L41.3615 23.4789L41.4907 23.4026L41.7924 23.2271C41.7924 23.2271 41.8051 23.2195 41.8101 23.2144L52.8825 16.753C52.9028 16.7403 52.9206 16.7301 52.9409 16.7174L53.1512 16.5954C53.8154 16.1631 53.2476 15.7003 52.9485 15.507C52.8572 15.4485 52.7938 15.4155 52.7938 15.4155L52.6671 15.3417C52.6671 15.3417 52.6443 15.3239 52.6341 15.3214L52.4719 15.2248L28.1648 0.890735C28.0254 0.809364 27.8936 0.783936 27.7745 0.783936C27.597 0.783936 27.4627 0.844964 27.4018 0.875478C27.3815 0.885649 27.3739 0.893278 27.3739 0.893278L1.51552 15.6774C1.51552 15.6774 1.50538 15.6825 1.50031 15.685L1.3178 15.7893C1.10233 15.9342 0.957842 16.1122 0.858981 16.2902C0.63591 16.6971 0.653655 17.1955 0.653655 17.1955V17.1751L0.653655 47.0358C0.673934 47.1146 0.815888 47.7554 1.18345 48.0046C1.2088 48.025 1.23668 48.0377 1.26456 48.0529L26.9278 62.9133C26.9278 62.9133 26.9278 62.9133 26.9354 62.9184L26.9658 62.9388C26.9658 62.9388 26.9836 62.9489 26.9937 62.954L27.0698 62.9998L27.0976 63.0176C27.1179 63.0329 27.1509 63.0481 27.1889 63.0685C27.3156 63.1295 27.526 63.2109 27.7668 63.2159C27.9367 63.221 28.1167 63.1905 28.2992 63.0913C28.3271 63.0761 28.36 63.0583 28.3879 63.0379L28.4487 63.0049L28.5907 62.921C28.5907 62.921 28.5983 62.9159 28.6034 62.9133L54.1297 47.9995C54.553 47.7529 54.2336 47.4808 54.0689 47.3689L54.0739 47.3715ZM14.4561 23.962C14.4561 23.962 14.4663 23.9493 14.4739 23.9417C14.4663 23.9493 14.4612 23.9544 14.4561 23.962ZM27.995 16.453C27.9443 16.425 27.8936 16.3945 27.8505 16.3716L27.995 16.453ZM15.0569 40.5465L14.7933 40.399C14.882 40.4498 14.9733 40.5007 15.0569 40.5465ZM14.3142 40.1294L14.2153 40.0735C14.2153 40.0735 14.2533 40.0938 14.3142 40.1294ZM14.7299 40.3634L14.5702 40.2744C14.6209 40.3023 14.6741 40.3329 14.7299 40.3634ZM14.555 40.2642L14.3953 40.1752C14.4435 40.2006 14.4967 40.2311 14.555 40.2642ZM27.8302 47.669L27.7871 47.6944C27.7871 47.6944 27.8099 47.6817 27.8302 47.669ZM27.9063 47.6257C27.9671 47.5901 28.0482 47.5444 28.1395 47.4935L27.9063 47.6257ZM28.3752 47.3587C28.4335 47.3257 28.4918 47.2926 28.5527 47.257L28.3752 47.3587ZM28.8746 47.0739L28.7326 47.1528C28.7808 47.1248 28.829 47.0994 28.8746 47.0739Z" fill="url(#paint0_linear_784_494)"/>
<path d="M28.0562 16.4885C28.0562 16.4885 28.0764 16.4987 28.084 16.5038C28.0764 16.4987 28.0663 16.4936 28.0562 16.4885Z" fill="url(#paint1_linear_784_494)"/>
<path d="M29.2705 46.8528C29.2705 46.8528 29.2933 46.84 29.3009 46.835C29.2908 46.84 29.2806 46.8451 29.2705 46.8528Z" fill="url(#paint2_linear_784_494)"/>
</g>
<defs>
<linearGradient id="paint0_linear_784_494" x1="0.653655" y1="31.9999" x2="54.3452" y2="31.9999" gradientUnits="userSpaceOnUse">
<stop stop-color="#FBB040"/>
<stop offset="1" stop-color="#FF5627"/>
</linearGradient>
<linearGradient id="paint1_linear_784_494" x1="28.0562" y1="16.4962" x2="28.084" y2="16.4962" gradientUnits="userSpaceOnUse">
<stop stop-color="#FBB040"/>
<stop offset="1" stop-color="#FF5627"/>
</linearGradient>
<linearGradient id="paint2_linear_784_494" x1="29.2705" y1="46.8426" x2="29.3009" y2="46.8426" gradientUnits="userSpaceOnUse">
<stop stop-color="#FBB040"/>
<stop offset="1" stop-color="#FF5627"/>
</linearGradient>
<clipPath id="clip0_784_494">
<rect width="53.6915" height="62.432" fill="white" transform="translate(0.654053 0.783936)"/>
</clipPath>
</defs>
</svg>
