<svg width="84" height="88" viewBox="0 0 84 88" fill="none" xmlns="http://www.w3.org/2000/svg">
<g clip-path="url(#clip0_786_712)">
<path d="M46.377 33.2614C46.9566 31.6164 47.3303 30.6189 47.3303 30.6189C47.5579 30.0103 47.9501 28.9749 48.9447 26.3788C48.9447 26.3788 49.9441 23.7701 50.3726 22.5753C50.3929 22.5219 50.4361 22.3976 50.4994 22.226C50.6023 21.9451 50.7613 21.5223 50.9656 21.0231C51.0135 20.9027 51.0596 20.7816 51.1075 20.6612C51.355 20.0377 52.2914 17.5784 54.5531 11.5743C54.9079 11.7216 55.3187 11.9412 55.7165 12.2803C55.7286 12.291 55.8855 12.4241 56.0381 12.5842C64.1434 21.0675 75.4957 36.6084 75.4957 36.6084C75.5231 36.6433 75.6072 36.759 75.7091 36.9242C76.0715 37.5005 76.2758 38.0697 76.3959 38.5559C75.7314 38.6556 74.7966 38.7972 73.6758 38.9678C71.2717 39.335 70.0692 39.5174 69.9932 39.5353C67.7774 40.0333 66.6917 40.0849 64.7541 40.3972C64.6245 40.4171 62.7297 40.7131 61.5329 40.9283C60.5546 41.1043 60.3515 41.1085 59.867 41.1789C59.5097 41.2304 59.2477 41.2775 59.1166 41.301C57.735 41.5477 57.2532 41.5682 56.5622 41.6945C56.4882 41.7071 56.2968 41.7505 55.9142 41.8311C54.6592 42.0975 54.1818 42.2134 53.4858 42.2461C53.3139 42.2541 53.1755 42.2544 53.0942 42.254C53.0942 42.254 52.9289 42.293 52.56 42.2198C51.8964 42.0875 50.0707 39.023 49.5137 38.3807C49.0743 37.8729 49.1069 37.8996 48.978 37.72C48.978 37.72 48.7989 37.4744 48.5863 37.21C46.9513 35.1887 46.0856 34.4329 46.2779 33.5377C46.2816 33.5227 46.3124 33.4366 46.3728 33.2618L46.377 33.2614Z" fill="#585858"/>
<path d="M46.3375 33.3767C49.0781 26.1094 51.817 18.8413 54.5576 11.5739C53.7125 11.3357 53.0314 11.2599 52.6963 11.2852C52.4324 11.3051 52.1292 11.3588 52.1292 11.3588C51.9333 11.3923 51.7915 11.4281 51.7782 11.4311C51.2827 11.5463 24.1677 15.8988 20.6371 16.4732C19.7328 16.6202 19.5042 16.7718 19.8189 17.281C19.8207 17.2817 19.8218 17.2842 19.8229 17.2866C19.9074 17.4228 20.0275 17.5827 20.186 17.7756C22.5103 20.6098 24.836 23.4405 27.1634 26.2719C29.6413 29.2849 32.1136 32.2755 34.5852 35.2412C34.7114 35.2464 34.8959 35.2535 35.1202 35.2573C36.8015 35.2817 38.0314 35.0649 39.0469 34.8929C40.1928 34.6991 41.5832 34.4721 43.4729 34.1843C44.1254 34.0413 44.6321 34.0731 44.9809 34.1346C45.3263 34.1947 45.5797 34.277 45.8416 34.1503C46.1391 34.0047 46.2742 33.6605 46.3428 33.3788L46.3375 33.3767Z" fill="#2B2324"/>
<path d="M46.2829 33.5353L34.5807 35.2415C37.0469 38.1624 39.5125 41.0851 41.9788 44.006L53.1339 42.1711C50.8488 39.2927 48.5662 36.4131 46.2811 33.5346L46.2829 33.5353Z" fill="#6B6B6B"/>
<path d="M76.2083 40.2828C76.2185 40.2561 76.2511 40.1543 76.286 40.0147C76.4219 39.4813 76.4366 38.9832 76.399 38.553C74.2652 38.8783 72.1288 39.1944 69.997 39.5307C68.2499 39.8074 66.5046 40.1115 64.7579 40.3925C63.1106 40.6583 62.7586 40.7119 60.3922 41.0873C58.7311 41.3519 56.3523 41.7328 53.4246 42.2146C53.3912 42.206 53.3568 42.1949 53.3234 42.1863C53.1192 42.2044 52.9175 42.2213 52.7133 42.2394C49.3363 42.7949 45.9577 43.3496 42.5801 43.9068C42.3232 43.9456 42.114 43.9822 41.9812 44.005L41.9776 44.0037L41.9763 44.0072C40.9362 46.739 39.8953 49.4726 38.8517 52.203C38.8481 52.2016 38.8463 52.2009 38.8421 52.2014C37.0631 56.8682 35.2835 61.5368 33.5028 66.203C32.9913 67.5517 32.4833 68.9018 31.9701 70.2499C31.2656 72.1002 30.5575 73.9491 29.8601 75.8021C29.488 76.79 29.8591 77.2901 30.8841 77.2053C31.0249 77.1937 31.1633 77.1668 31.3027 77.1425C41.1865 75.5371 51.0649 73.9032 60.9555 72.3493C63.2036 71.9962 64.6063 70.738 65.371 68.7455C71.4054 53.0573 74.5619 45.2693 76.2068 40.2761L76.2083 40.2828Z" fill="#2A2323"/>
</g>
<defs>
<clipPath id="clip0_786_712">
<rect width="61.2735" height="69.9539" fill="white" transform="translate(25.8645 0.648926) rotate(20.8445)"/>
</clipPath>
</defs>
</svg>
