<svg width="94" height="108" viewBox="0 0 94 108" fill="none" xmlns="http://www.w3.org/2000/svg">
<g clip-path="url(#clip0_786_722)">
<path d="M47.0656 35.7413C46.9988 33.082 46.9901 31.4574 46.9901 31.4574C46.9842 30.4664 46.9813 28.7779 46.9901 24.5377C46.9901 24.5377 46.9988 20.2771 46.961 18.3416C46.961 18.2544 46.9552 18.0538 46.9523 17.7748C46.9465 17.3186 46.9436 16.6298 46.9639 15.8073C46.9668 15.6097 46.9668 15.4121 46.9697 15.2144C46.9842 14.1914 46.9842 10.1779 46.9494 0.392578C47.5364 0.410016 48.2427 0.500109 48.9954 0.767484C49.0186 0.776203 49.3151 0.880828 49.6202 1.02614C65.8138 8.71897 90.4849 24.7091 90.4849 24.7091C90.5431 24.744 90.7262 24.8632 90.9616 25.0434C91.7928 25.6682 92.3944 26.3686 92.8303 26.9964C91.9352 27.4991 90.6768 28.2083 89.1684 29.0598C85.9338 30.8878 84.315 31.8004 84.2162 31.8672C81.3216 33.7795 79.7987 34.4422 77.2005 35.9389C77.0261 36.0377 74.4803 37.4879 72.8876 38.4441C71.5856 39.2258 71.2979 39.3421 70.644 39.7054C70.1616 39.9728 69.8128 40.182 69.6384 40.2866C67.2873 41.6932 66.8368 41.7775 65.3517 42.7802C64.4072 43.4196 63.2592 43.7392 62.3641 44.4484C62.3467 44.4629 62.2769 44.4774 62.1926 44.5123C61.87 44.6489 61.6986 44.8146 61.5533 44.9134C61.5533 44.9134 61.3382 45.0587 60.7715 45.1546C59.7514 45.3261 55.4763 41.949 54.3312 41.3358C53.4274 40.8504 53.4884 40.8708 53.2065 40.6848C53.2065 40.6848 52.8171 40.4319 52.3695 40.1704C48.9343 38.1767 47.2865 37.5693 47.0743 36.1888C47.0714 36.1656 47.0685 36.0261 47.0598 35.7442L47.0656 35.7413Z" fill="#585858"/>
<path d="M47.0719 35.9272C47.0341 24.0814 46.9934 12.2355 46.9556 0.389648C45.6188 0.508805 44.6045 0.770367 44.1395 0.988335C43.7733 1.1598 43.3693 1.40102 43.3693 1.40102C43.1078 1.55505 42.9247 1.68293 42.9072 1.69455C42.2621 2.12758 5.89328 23.0467 1.16191 25.7815C-0.0499952 26.4819 -0.29412 26.822 0.432442 27.3771C0.435348 27.3771 0.438254 27.38 0.441161 27.3829C0.635879 27.5311 0.894535 27.6938 1.22585 27.8827C6.088 30.6611 10.9501 33.4337 15.8152 36.2062C20.9941 39.1561 26.1527 42.0769 31.2968 44.9628C31.4799 44.9017 31.7472 44.8116 32.0698 44.6954C34.4849 43.8177 36.1241 42.8412 37.4813 42.0449C39.0129 41.1469 40.8758 40.0686 43.4187 38.6329C44.2732 38.075 45.0143 37.8454 45.5461 37.7436C46.0721 37.6419 46.479 37.6216 46.7842 37.299C47.13 36.9299 47.1358 36.3661 47.0806 35.9272H47.0719Z" fill="#2B2324"/>
<path d="M47.0802 36.1831L31.2905 44.9658C36.4026 47.7907 41.5147 50.6184 46.6268 53.4433L61.5649 44.774C56.7347 41.9113 51.9074 39.0458 47.0773 36.1831H47.0802Z" fill="#6B6B6B"/>
<path d="M93.5015 29.5596C93.5015 29.516 93.4928 29.3533 93.4666 29.1353C93.3707 28.3012 93.1208 27.5834 92.8331 26.9905C89.9617 28.6122 87.0816 30.2222 84.219 31.8584C81.8736 33.2011 79.5457 34.5816 77.2033 35.9301C74.9945 37.203 74.5208 37.4704 71.3443 39.2897C69.1152 40.5685 65.9242 42.4023 62.0036 44.6779C61.9513 44.6837 61.8961 44.6866 61.8438 44.6924C61.5619 44.829 61.2829 44.9627 61.001 45.0993C56.4788 47.7236 51.9538 50.348 47.4317 52.9752C47.0859 53.17 46.8069 53.3356 46.6296 53.4402H46.6238V53.446C46.6238 57.9042 46.6238 62.3653 46.618 66.8235C46.6121 66.8235 46.6092 66.8235 46.6034 66.8264C46.6005 74.4437 46.5976 82.0639 46.5918 89.6811C46.5947 91.8812 46.6034 94.0812 46.6034 96.2812C46.6034 99.3008 46.5976 102.32 46.6092 105.34C46.615 106.95 47.4172 107.462 48.8354 106.784C49.0301 106.691 49.2132 106.578 49.3992 106.468C62.6459 98.8155 75.8693 91.1255 89.1538 83.5431C92.1734 81.8197 93.4928 79.2651 93.5015 76.0101C93.5887 50.3741 93.8619 37.5605 93.4957 29.5509L93.5015 29.5596Z" fill="#2A2323"/>
<path d="M77.0638 71.7495C77.029 71.7263 76.9999 71.7118 76.9854 71.703L76.9679 71.6943L62.7651 63.6556L62.6721 63.6033C62.6721 63.6033 62.6605 63.5975 62.6547 63.5946C62.3582 63.4638 62.0821 63.5568 61.9543 63.615C61.9048 63.6382 61.8787 63.6556 61.8787 63.6556L48.7279 71.0956C48.7134 71.1044 48.6901 71.116 48.664 71.1334C48.6698 71.1334 48.6727 71.1276 48.6756 71.1276L48.6175 71.1596C48.6175 71.1596 48.6233 71.1567 48.6262 71.1538C48.5884 71.177 48.539 71.2032 48.4867 71.2322C48.4954 71.2264 48.5012 71.2235 48.51 71.2206L48.4605 71.2497C48.4605 71.2497 48.478 71.238 48.4896 71.2351C48.4664 71.2468 48.4402 71.2642 48.414 71.2787C48.417 71.2787 48.4199 71.2758 48.4228 71.2729L48.3995 71.2845C48.3995 71.2845 48.4082 71.2787 48.414 71.2758C48.3966 71.2845 48.3792 71.2962 48.3588 71.3078L48.3181 71.331C48.3327 71.3223 48.3472 71.3165 48.3588 71.3078C46.9464 72.107 45.4584 71.3078 45.4555 71.3078L32.761 64.1904C32.761 64.1904 32.7552 64.1875 32.7494 64.1846L32.6913 64.1526C32.6622 64.1381 32.6302 64.1177 32.5895 64.0945L32.5053 64.048C32.5053 64.048 32.4878 64.0393 32.4791 64.0335L32.3977 63.987C32.4268 64.0044 32.4529 64.0189 32.4791 64.0335C31.4387 63.4493 31.3776 62.1822 31.3776 62.1822L31.5491 45.294C31.5491 45.2562 31.5549 45.1516 31.6159 45.044L31.5753 45.0208L31.6218 45.0382C31.6421 45.0034 31.6683 44.9656 31.706 44.9336C31.6915 44.9452 31.6799 44.9569 31.6712 44.9656C31.6944 44.9394 31.7235 44.9133 31.7758 44.8842L31.5578 45.0092L46.6064 36.4474C46.6732 36.4096 46.9406 36.2875 47.2399 36.4561C47.2341 36.4532 47.2283 36.4503 47.2225 36.4474L47.2864 36.4822C47.2864 36.4822 47.2777 36.4764 47.2719 36.4735C47.3416 36.5142 47.3504 36.5171 47.3213 36.5026L60.7598 44.1983C60.7598 44.1983 60.7685 44.2041 60.7801 44.2129L61.0126 44.3436L61.1085 44.3989L61.2248 44.4657C61.2248 44.4657 61.2306 44.4657 61.2364 44.4715L61.3527 44.5413L61.3933 44.5645C61.3933 44.5645 61.4253 44.5819 61.4457 44.5907C61.6026 44.6633 61.9223 44.7796 62.1751 44.6226L62.3408 44.5267L62.489 44.4424L62.6372 44.3553L62.9831 44.1547C62.9831 44.1547 62.9976 44.146 63.0034 44.1402L75.6979 36.7554C75.7211 36.7409 75.7415 36.7293 75.7647 36.7147L76.006 36.5752C76.7674 36.0812 76.1164 35.5522 75.7735 35.3314C75.6688 35.2645 75.5962 35.2267 75.5962 35.2267L75.4509 35.1425C75.4509 35.1425 75.4247 35.1221 75.4131 35.1192L75.2271 35.0088L47.3707 18.6321C47.2109 18.5391 47.0597 18.51 46.9231 18.51C46.7197 18.51 46.5657 18.5798 46.4959 18.6146C46.4727 18.6263 46.464 18.635 46.464 18.635L16.8173 35.5348C16.8173 35.5348 16.8057 35.5406 16.7999 35.5435L16.5906 35.6627C16.3436 35.8283 16.178 36.0318 16.0646 36.2352C15.806 36.7002 15.8263 37.2698 15.8263 37.2698V37.2466V71.3746C15.8496 71.4647 16.0123 72.1971 16.4337 72.4819C16.4628 72.5052 16.4947 72.5197 16.5267 72.5371L45.9496 89.5212C45.9496 89.5212 45.9496 89.5212 45.9583 89.527L45.9931 89.5503C45.9931 89.5503 46.0135 89.5619 46.0251 89.5677L46.1123 89.62L46.1443 89.6404C46.1675 89.6578 46.2053 89.6753 46.2489 89.6985C46.3942 89.7683 46.6354 89.8613 46.9115 89.8671C47.1062 89.8729 47.3126 89.838 47.5218 89.7247C47.5538 89.7072 47.5916 89.6869 47.6235 89.6636L47.6933 89.6259L47.856 89.53C47.856 89.53 47.8648 89.5241 47.8706 89.5212L77.1365 72.4761C77.6218 72.1942 77.2556 71.8832 77.0667 71.7553L77.0638 71.7495ZM31.6421 44.9946C31.6421 44.9946 31.6537 44.9801 31.6624 44.9714C31.6537 44.9801 31.6479 44.9859 31.6421 44.9946ZM47.1644 36.4125C47.1062 36.3805 47.0481 36.3456 46.9987 36.3195L47.1644 36.4125ZM32.3309 63.9492L32.0286 63.7806C32.1303 63.8387 32.235 63.8969 32.3309 63.9492ZM31.4793 63.4725L31.366 63.4086C31.366 63.4086 31.4096 63.4319 31.4793 63.4725ZM31.956 63.7399L31.7729 63.6382C31.831 63.6702 31.892 63.7051 31.956 63.7399ZM31.7554 63.6266L31.5723 63.5249C31.6276 63.5539 31.6886 63.5888 31.7554 63.6266ZM46.9755 72.0896L46.9261 72.1186C46.9261 72.1186 46.9522 72.1041 46.9755 72.0896ZM47.0626 72.0402C47.1324 71.9995 47.2254 71.9472 47.33 71.889L47.0626 72.0402ZM47.6003 71.735C47.6671 71.6972 47.734 71.6594 47.8037 71.6188L47.6003 71.735ZM48.1728 71.4095L48.0101 71.4996C48.0653 71.4676 48.1205 71.4386 48.1728 71.4095Z" fill="url(#paint0_linear_786_722)"/>
<path d="M47.2371 36.4531C47.2371 36.4531 47.2602 36.4647 47.2688 36.4705C47.2602 36.4647 47.2486 36.4589 47.2371 36.4531Z" fill="url(#paint1_linear_786_722)"/>
<path d="M48.6262 71.1535C48.6262 71.1535 48.6522 71.1391 48.6609 71.1333C48.6493 71.1391 48.6378 71.1449 48.6262 71.1535Z" fill="url(#paint2_linear_786_722)"/>
</g>
<defs>
<linearGradient id="paint0_linear_786_722" x1="15.8205" y1="54.1813" x2="77.3748" y2="54.1813" gradientUnits="userSpaceOnUse">
<stop stop-color="#FBB040"/>
<stop offset="1" stop-color="#FF5627"/>
</linearGradient>
<linearGradient id="paint1_linear_786_722" x1="47.2371" y1="36.4618" x2="47.2688" y2="36.4618" gradientUnits="userSpaceOnUse">
<stop stop-color="#FBB040"/>
<stop offset="1" stop-color="#FF5627"/>
</linearGradient>
<linearGradient id="paint2_linear_786_722" x1="48.6262" y1="71.1449" x2="48.6609" y2="71.1449" gradientUnits="userSpaceOnUse">
<stop stop-color="#FBB040"/>
<stop offset="1" stop-color="#FF5627"/>
</linearGradient>
<clipPath id="clip0_786_722">
<rect width="93.6654" height="106.691" fill="white" transform="translate(0.0222168 0.389648)"/>
</clipPath>
</defs>
</svg>
