<svg width="25" height="87" viewBox="0 0 25 87" fill="none" xmlns="http://www.w3.org/2000/svg">
<g clip-path="url(#clip0_784_127)">
<path d="M12.2476 66.3085C5.4936 66.3085 0 60.8779 0 54.2015V36.1586C0 29.4822 5.4936 24.0516 12.2476 24.0516C19.0015 24.0516 24.4951 29.4822 24.4951 36.1586V54.2015C24.4951 60.8779 19.0015 66.3085 12.2476 66.3085ZM12.2476 25.0805C6.0675 25.0805 1.03893 30.0513 1.03893 36.1605V54.2033C1.03893 60.3124 6.0675 65.2833 12.2476 65.2833C18.4276 65.2833 23.4562 60.3124 23.4562 54.2033V36.1605C23.4562 30.0513 18.4276 25.0805 12.2476 25.0805Z" fill="#898989"/>
<path d="M12.2309 78.8168L11.8655 78.4556C8.71739 75.3435 3.94347 70.639 3.57809 70.318C3.38249 70.172 3.31421 69.9039 3.42862 69.6795C3.55779 69.426 3.86966 69.322 4.12616 69.4497C4.22212 69.4971 4.31992 69.5463 12.2346 77.3684L20.236 69.5445C20.4409 69.3439 20.7694 69.3475 20.9705 69.5482C21.1716 69.7507 21.1698 70.0754 20.9668 70.2742L12.2291 78.8168H12.2309Z" fill="#898989"/>
<path d="M12.2309 87L11.8655 86.6388C8.71739 83.5268 3.94347 78.8222 3.57809 78.5012C3.38249 78.3553 3.31421 78.0871 3.42862 77.8627C3.55779 77.6092 3.86966 77.5052 4.12616 77.6329C4.22212 77.6803 4.31992 77.7296 12.2346 85.5516L20.236 77.7278C20.4409 77.5271 20.7694 77.5307 20.9705 77.7314C21.1716 77.9339 21.1698 78.2586 20.9668 78.4574L12.2291 87H12.2309Z" fill="#898989"/>
<path d="M12.2642 8.18323L12.6295 8.54441C15.7777 11.6564 20.5516 16.361 20.917 16.682C21.1126 16.828 21.1809 17.0961 21.0665 17.3205C20.9373 17.574 20.6254 17.678 20.3689 17.5503C20.273 17.5029 20.1752 17.4536 12.2605 9.63162L4.25904 17.4555C4.0542 17.6561 3.72573 17.6525 3.52459 17.4518C3.32345 17.2493 3.32529 16.9246 3.52828 16.7258L12.266 8.18323H12.2642Z" fill="#898989"/>
<path d="M12.2642 0L12.6295 0.361185C15.7777 3.47321 20.5516 8.17774 20.917 8.49879C21.1126 8.64473 21.1809 8.91288 21.0665 9.13725C20.9373 9.39081 20.6254 9.49479 20.3689 9.3671C20.273 9.31967 20.1752 9.27042 12.2605 1.44839L4.25904 9.27407C4.0542 9.47472 3.72573 9.47108 3.52459 9.27042C3.32345 9.06793 3.32529 8.74323 3.52828 8.5444L12.2642 0Z" fill="#898989"/>
<path d="M14.6267 34.4498C14.84 33.1511 13.9478 31.9273 12.634 31.7165C11.3201 31.5057 10.0822 32.3876 9.86894 33.6864C9.65567 34.9851 10.5479 36.2089 11.8617 36.4197C13.1755 36.6305 14.4134 35.7486 14.6267 34.4498Z" fill="#898989"/>
</g>
<defs>
<clipPath id="clip0_784_127">
<rect width="24.4951" height="87" fill="white"/>
</clipPath>
</defs>
</svg>
